<?xml version="1.0" encoding="UTF-8"?>
<svg xmlns="http://www.w3.org/2000/svg" xmlns:xlink="http://www.w3.org/1999/xlink" width="227.376" height="196.016" viewBox="0 0 227.376 196.016">
<defs>
<g>
<g id="glyph-0-0">
<path d="M 0.5625 -3.40625 C 0.5625 -1.34375 2.171875 0.21875 4.03125 0.21875 C 5.65625 0.21875 6.625 -1.171875 6.625 -2.328125 C 6.625 -2.421875 6.625 -2.5 6.5 -2.5 C 6.390625 -2.5 6.390625 -2.4375 6.375 -2.328125 C 6.296875 -0.90625 5.234375 -0.09375 4.140625 -0.09375 C 3.53125 -0.09375 1.578125 -0.421875 1.578125 -3.40625 C 1.578125 -6.375 3.53125 -6.71875 4.140625 -6.71875 C 5.21875 -6.71875 6.109375 -5.8125 6.3125 -4.359375 C 6.328125 -4.21875 6.328125 -4.1875 6.46875 -4.1875 C 6.625 -4.1875 6.625 -4.21875 6.625 -4.421875 L 6.625 -6.78125 C 6.625 -6.953125 6.625 -7.03125 6.515625 -7.03125 C 6.484375 -7.03125 6.4375 -7.03125 6.359375 -6.90625 L 5.859375 -6.171875 C 5.5 -6.53125 4.984375 -7.03125 4.03125 -7.03125 C 2.15625 -7.03125 0.5625 -5.4375 0.5625 -3.40625 Z M 0.5625 -3.40625 "/>
</g>
<g id="glyph-0-1">
<path d="M 4 -3.84375 L 5.375 -5.859375 C 5.59375 -6.171875 5.9375 -6.484375 6.8125 -6.5 L 6.8125 -6.8125 C 6.4375 -6.796875 5.96875 -6.78125 5.71875 -6.78125 C 5.3125 -6.78125 4.828125 -6.78125 4.4375 -6.8125 L 4.4375 -6.5 C 4.828125 -6.484375 5.046875 -6.265625 5.046875 -6.046875 C 5.046875 -5.9375 5.03125 -5.921875 4.96875 -5.8125 L 3.828125 -4.125 L 2.546875 -6.046875 C 2.515625 -6.078125 2.46875 -6.15625 2.46875 -6.203125 C 2.46875 -6.3125 2.6875 -6.484375 3.125 -6.5 L 3.125 -6.8125 C 2.765625 -6.78125 2.046875 -6.78125 1.671875 -6.78125 C 1.359375 -6.78125 0.734375 -6.78125 0.375 -6.8125 L 0.375 -6.5 L 0.5625 -6.5 C 1.109375 -6.5 1.296875 -6.4375 1.484375 -6.15625 L 3.3125 -3.375 L 1.6875 -0.96875 C 1.546875 -0.765625 1.25 -0.3125 0.234375 -0.3125 L 0.234375 0 C 0.59375 -0.015625 1.015625 -0.03125 1.34375 -0.03125 C 1.71875 -0.03125 2.265625 -0.03125 2.625 0 L 2.625 -0.3125 C 2.15625 -0.3125 2 -0.59375 2 -0.765625 C 2 -0.859375 2.03125 -0.890625 2.09375 -1 L 3.515625 -3.09375 L 5.078125 -0.71875 C 5.109375 -0.671875 5.140625 -0.640625 5.140625 -0.609375 C 5.140625 -0.484375 4.921875 -0.3125 4.484375 -0.3125 L 4.484375 0 C 4.828125 -0.03125 5.5625 -0.03125 5.9375 -0.03125 C 6.359375 -0.03125 6.8125 -0.015625 7.234375 0 L 7.234375 -0.3125 L 7.046875 -0.3125 C 6.53125 -0.3125 6.3125 -0.359375 6.109375 -0.671875 Z M 4 -3.84375 "/>
</g>
<g id="glyph-0-2">
<path d="M 3.484375 -3.875 L 2.203125 -4.171875 C 1.578125 -4.328125 1.203125 -4.859375 1.203125 -5.4375 C 1.203125 -6.140625 1.734375 -6.75 2.515625 -6.75 C 4.171875 -6.75 4.390625 -5.109375 4.453125 -4.671875 C 4.46875 -4.609375 4.46875 -4.546875 4.578125 -4.546875 C 4.703125 -4.546875 4.703125 -4.59375 4.703125 -4.78125 L 4.703125 -6.78125 C 4.703125 -6.953125 4.703125 -7.03125 4.59375 -7.03125 C 4.53125 -7.03125 4.515625 -7.015625 4.453125 -6.890625 L 4.09375 -6.328125 C 3.796875 -6.625 3.390625 -7.03125 2.5 -7.03125 C 1.390625 -7.03125 0.5625 -6.15625 0.5625 -5.09375 C 0.5625 -4.265625 1.09375 -3.53125 1.859375 -3.265625 C 1.96875 -3.234375 2.484375 -3.109375 3.1875 -2.9375 C 3.453125 -2.875 3.75 -2.796875 4.03125 -2.4375 C 4.234375 -2.171875 4.34375 -1.84375 4.34375 -1.515625 C 4.34375 -0.8125 3.84375 -0.09375 3 -0.09375 C 2.71875 -0.09375 1.953125 -0.140625 1.421875 -0.625 C 0.84375 -1.171875 0.8125 -1.796875 0.8125 -2.15625 C 0.796875 -2.265625 0.71875 -2.265625 0.6875 -2.265625 C 0.5625 -2.265625 0.5625 -2.1875 0.5625 -2.015625 L 0.5625 -0.015625 C 0.5625 0.15625 0.5625 0.21875 0.671875 0.21875 C 0.734375 0.21875 0.75 0.203125 0.8125 0.09375 C 0.8125 0.078125 0.84375 0.046875 1.171875 -0.484375 C 1.484375 -0.140625 2.125 0.21875 3.015625 0.21875 C 4.171875 0.21875 4.96875 -0.75 4.96875 -1.859375 C 4.96875 -2.84375 4.3125 -3.671875 3.484375 -3.875 Z M 3.484375 -3.875 "/>
</g>
<g id="glyph-0-3">
<path d="M 4.140625 -3.34375 C 4.390625 -3.984375 4.90625 -3.984375 5.0625 -3.984375 L 5.0625 -4.296875 C 4.828125 -4.28125 4.546875 -4.265625 4.3125 -4.265625 C 4.140625 -4.265625 3.671875 -4.28125 3.453125 -4.296875 L 3.453125 -3.984375 C 3.765625 -3.984375 3.921875 -3.8125 3.921875 -3.5625 C 3.921875 -3.453125 3.90625 -3.4375 3.859375 -3.3125 L 2.84375 -0.875 L 1.75 -3.546875 C 1.703125 -3.65625 1.6875 -3.6875 1.6875 -3.734375 C 1.6875 -3.984375 2.046875 -3.984375 2.25 -3.984375 L 2.25 -4.296875 C 1.984375 -4.28125 1.328125 -4.265625 1.15625 -4.265625 C 0.890625 -4.265625 0.484375 -4.28125 0.1875 -4.296875 L 0.1875 -3.984375 C 0.671875 -3.984375 0.859375 -3.984375 1 -3.640625 L 2.5 0 C 2.4375 0.125 2.296875 0.453125 2.25 0.59375 C 2.03125 1.140625 1.75 1.828125 1.109375 1.828125 C 1.0625 1.828125 0.828125 1.828125 0.640625 1.640625 C 0.953125 1.609375 1.03125 1.390625 1.03125 1.21875 C 1.03125 0.96875 0.84375 0.8125 0.609375 0.8125 C 0.40625 0.8125 0.1875 0.9375 0.1875 1.234375 C 0.1875 1.6875 0.609375 2.046875 1.109375 2.046875 C 1.734375 2.046875 2.140625 1.46875 2.375 0.90625 Z M 4.140625 -3.34375 "/>
</g>
<g id="glyph-0-4">
<path d="M 2.078125 -1.9375 C 2.296875 -1.890625 3.109375 -1.734375 3.109375 -1.015625 C 3.109375 -0.515625 2.765625 -0.109375 1.984375 -0.109375 C 1.140625 -0.109375 0.78125 -0.671875 0.59375 -1.53125 C 0.5625 -1.65625 0.5625 -1.6875 0.453125 -1.6875 C 0.328125 -1.6875 0.328125 -1.625 0.328125 -1.453125 L 0.328125 -0.125 C 0.328125 0.046875 0.328125 0.109375 0.4375 0.109375 C 0.484375 0.109375 0.5 0.09375 0.6875 -0.09375 C 0.703125 -0.109375 0.703125 -0.125 0.890625 -0.3125 C 1.328125 0.09375 1.78125 0.109375 1.984375 0.109375 C 3.125 0.109375 3.59375 -0.5625 3.59375 -1.28125 C 3.59375 -1.796875 3.296875 -2.109375 3.171875 -2.21875 C 2.84375 -2.546875 2.453125 -2.625 2.03125 -2.703125 C 1.46875 -2.8125 0.8125 -2.9375 0.8125 -3.515625 C 0.8125 -3.875 1.0625 -4.28125 1.921875 -4.28125 C 3.015625 -4.28125 3.078125 -3.375 3.09375 -3.078125 C 3.09375 -2.984375 3.1875 -2.984375 3.203125 -2.984375 C 3.34375 -2.984375 3.34375 -3.03125 3.34375 -3.21875 L 3.34375 -4.234375 C 3.34375 -4.390625 3.34375 -4.46875 3.234375 -4.46875 C 3.1875 -4.46875 3.15625 -4.46875 3.03125 -4.34375 C 3 -4.3125 2.90625 -4.21875 2.859375 -4.1875 C 2.484375 -4.46875 2.078125 -4.46875 1.921875 -4.46875 C 0.703125 -4.46875 0.328125 -3.796875 0.328125 -3.234375 C 0.328125 -2.890625 0.484375 -2.609375 0.75 -2.390625 C 1.078125 -2.140625 1.359375 -2.078125 2.078125 -1.9375 Z M 2.078125 -1.9375 "/>
</g>
<g id="glyph-0-5">
<path d="M 1.71875 -3.984375 L 3.15625 -3.984375 L 3.15625 -4.296875 L 1.71875 -4.296875 L 1.71875 -6.125 L 1.46875 -6.125 C 1.46875 -5.3125 1.171875 -4.25 0.1875 -4.203125 L 0.1875 -3.984375 L 1.03125 -3.984375 L 1.03125 -1.234375 C 1.03125 -0.015625 1.96875 0.109375 2.328125 0.109375 C 3.03125 0.109375 3.3125 -0.59375 3.3125 -1.234375 L 3.3125 -1.796875 L 3.0625 -1.796875 L 3.0625 -1.25 C 3.0625 -0.515625 2.765625 -0.140625 2.390625 -0.140625 C 1.71875 -0.140625 1.71875 -1.046875 1.71875 -1.21875 Z M 1.71875 -3.984375 "/>
</g>
<g id="glyph-0-6">
<path d="M 1.109375 -2.515625 C 1.171875 -4 2.015625 -4.25 2.359375 -4.25 C 3.375 -4.25 3.484375 -2.90625 3.484375 -2.515625 Z M 1.109375 -2.296875 L 3.890625 -2.296875 C 4.109375 -2.296875 4.140625 -2.296875 4.140625 -2.515625 C 4.140625 -3.5 3.59375 -4.46875 2.359375 -4.46875 C 1.203125 -4.46875 0.28125 -3.4375 0.28125 -2.1875 C 0.28125 -0.859375 1.328125 0.109375 2.46875 0.109375 C 3.6875 0.109375 4.140625 -1 4.140625 -1.1875 C 4.140625 -1.28125 4.0625 -1.3125 4 -1.3125 C 3.921875 -1.3125 3.890625 -1.25 3.875 -1.171875 C 3.53125 -0.140625 2.625 -0.140625 2.53125 -0.140625 C 2.03125 -0.140625 1.640625 -0.4375 1.40625 -0.8125 C 1.109375 -1.28125 1.109375 -1.9375 1.109375 -2.296875 Z M 1.109375 -2.296875 "/>
</g>
<g id="glyph-0-7">
<path d="M 1.09375 -3.421875 L 1.09375 -0.75 C 1.09375 -0.3125 0.984375 -0.3125 0.3125 -0.3125 L 0.3125 0 C 0.671875 -0.015625 1.171875 -0.03125 1.453125 -0.03125 C 1.703125 -0.03125 2.21875 -0.015625 2.5625 0 L 2.5625 -0.3125 C 1.890625 -0.3125 1.78125 -0.3125 1.78125 -0.75 L 1.78125 -2.59375 C 1.78125 -3.625 2.5 -4.1875 3.125 -4.1875 C 3.765625 -4.1875 3.875 -3.65625 3.875 -3.078125 L 3.875 -0.75 C 3.875 -0.3125 3.765625 -0.3125 3.09375 -0.3125 L 3.09375 0 C 3.4375 -0.015625 3.953125 -0.03125 4.21875 -0.03125 C 4.46875 -0.03125 5 -0.015625 5.328125 0 L 5.328125 -0.3125 C 4.671875 -0.3125 4.5625 -0.3125 4.5625 -0.75 L 4.5625 -2.59375 C 4.5625 -3.625 5.265625 -4.1875 5.90625 -4.1875 C 6.53125 -4.1875 6.640625 -3.65625 6.640625 -3.078125 L 6.640625 -0.75 C 6.640625 -0.3125 6.53125 -0.3125 5.859375 -0.3125 L 5.859375 0 C 6.203125 -0.015625 6.71875 -0.03125 6.984375 -0.03125 C 7.25 -0.03125 7.765625 -0.015625 8.109375 0 L 8.109375 -0.3125 C 7.59375 -0.3125 7.34375 -0.3125 7.328125 -0.609375 L 7.328125 -2.515625 C 7.328125 -3.375 7.328125 -3.671875 7.015625 -4.03125 C 6.875 -4.203125 6.546875 -4.40625 5.96875 -4.40625 C 5.140625 -4.40625 4.6875 -3.8125 4.53125 -3.421875 C 4.390625 -4.296875 3.65625 -4.40625 3.203125 -4.40625 C 2.46875 -4.40625 2 -3.984375 1.71875 -3.359375 L 1.71875 -4.40625 L 0.3125 -4.296875 L 0.3125 -3.984375 C 1.015625 -3.984375 1.09375 -3.921875 1.09375 -3.421875 Z M 1.09375 -3.421875 "/>
</g>
<g id="glyph-0-8">
<path d="M 2.234375 -3.515625 L 2.234375 -6.09375 C 2.234375 -6.328125 2.234375 -6.453125 2.453125 -6.484375 C 2.546875 -6.5 2.84375 -6.5 3.046875 -6.5 C 3.9375 -6.5 5.046875 -6.453125 5.046875 -5.015625 C 5.046875 -4.328125 4.8125 -3.515625 3.34375 -3.515625 Z M 4.34375 -3.390625 C 5.296875 -3.625 6.078125 -4.234375 6.078125 -5.015625 C 6.078125 -5.96875 4.9375 -6.8125 3.484375 -6.8125 L 0.34375 -6.8125 L 0.34375 -6.5 L 0.59375 -6.5 C 1.359375 -6.5 1.375 -6.390625 1.375 -6.03125 L 1.375 -0.78125 C 1.375 -0.421875 1.359375 -0.3125 0.59375 -0.3125 L 0.34375 -0.3125 L 0.34375 0 C 0.703125 -0.03125 1.421875 -0.03125 1.796875 -0.03125 C 2.1875 -0.03125 2.90625 -0.03125 3.265625 0 L 3.265625 -0.3125 L 3.015625 -0.3125 C 2.25 -0.3125 2.234375 -0.421875 2.234375 -0.78125 L 2.234375 -3.296875 L 3.375 -3.296875 C 3.53125 -3.296875 3.953125 -3.296875 4.3125 -2.953125 C 4.6875 -2.609375 4.6875 -2.296875 4.6875 -1.625 C 4.6875 -0.984375 4.6875 -0.578125 5.09375 -0.203125 C 5.5 0.15625 6.046875 0.21875 6.34375 0.21875 C 7.125 0.21875 7.296875 -0.59375 7.296875 -0.875 C 7.296875 -0.9375 7.296875 -1.046875 7.171875 -1.046875 C 7.0625 -1.046875 7.0625 -0.953125 7.046875 -0.890625 C 6.984375 -0.171875 6.640625 0 6.390625 0 C 5.90625 0 5.828125 -0.515625 5.6875 -1.4375 L 5.546875 -2.234375 C 5.375 -2.875 4.890625 -3.203125 4.34375 -3.390625 Z M 4.34375 -3.390625 "/>
</g>
<g id="glyph-0-9">
<path d="M 5.796875 -2.578125 L 5.546875 -2.578125 C 5.4375 -1.5625 5.296875 -0.3125 3.546875 -0.3125 L 2.734375 -0.3125 C 2.265625 -0.3125 2.25 -0.375 2.25 -0.703125 L 2.25 -6.015625 C 2.25 -6.359375 2.25 -6.5 3.1875 -6.5 L 3.515625 -6.5 L 3.515625 -6.8125 C 3.15625 -6.78125 2.25 -6.78125 1.84375 -6.78125 C 1.453125 -6.78125 0.671875 -6.78125 0.328125 -6.8125 L 0.328125 -6.5 L 0.5625 -6.5 C 1.328125 -6.5 1.359375 -6.390625 1.359375 -6.03125 L 1.359375 -0.78125 C 1.359375 -0.421875 1.328125 -0.3125 0.5625 -0.3125 L 0.328125 -0.3125 L 0.328125 0 L 5.515625 0 Z M 5.796875 -2.578125 "/>
</g>
<g id="glyph-0-10">
<path d="M 5.90625 -0.625 C 6.046875 -0.40625 6.4375 -0.015625 6.546875 -0.015625 C 6.640625 -0.015625 6.640625 -0.09375 6.640625 -0.234375 L 6.640625 -1.96875 C 6.640625 -2.359375 6.671875 -2.40625 7.328125 -2.40625 L 7.328125 -2.71875 C 6.953125 -2.71875 6.40625 -2.6875 6.109375 -2.6875 C 5.71875 -2.6875 4.859375 -2.6875 4.5 -2.71875 L 4.5 -2.40625 L 4.828125 -2.40625 C 5.71875 -2.40625 5.75 -2.296875 5.75 -1.9375 L 5.75 -1.296875 C 5.75 -0.171875 4.484375 -0.09375 4.203125 -0.09375 C 3.5625 -0.09375 1.578125 -0.4375 1.578125 -3.40625 C 1.578125 -6.390625 3.546875 -6.71875 4.140625 -6.71875 C 5.21875 -6.71875 6.125 -5.828125 6.3125 -4.359375 C 6.34375 -4.21875 6.34375 -4.1875 6.484375 -4.1875 C 6.640625 -4.1875 6.640625 -4.21875 6.640625 -4.421875 L 6.640625 -6.78125 C 6.640625 -6.953125 6.640625 -7.03125 6.53125 -7.03125 C 6.484375 -7.03125 6.453125 -7.03125 6.375 -6.90625 L 5.875 -6.171875 C 5.546875 -6.484375 5.015625 -7.03125 4.03125 -7.03125 C 2.171875 -7.03125 0.5625 -5.453125 0.5625 -3.40625 C 0.5625 -1.359375 2.15625 0.21875 4.046875 0.21875 C 4.78125 0.21875 5.578125 -0.046875 5.90625 -0.625 Z M 5.90625 -0.625 "/>
</g>
<g id="glyph-0-11">
<path d="M 4.359375 -7.09375 C 4.421875 -7.234375 4.421875 -7.25 4.421875 -7.28125 C 4.421875 -7.390625 4.328125 -7.484375 4.21875 -7.484375 C 4.078125 -7.484375 4.03125 -7.375 4 -7.28125 L 0.609375 2.109375 C 0.5625 2.25 0.5625 2.265625 0.5625 2.296875 C 0.5625 2.40625 0.640625 2.5 0.75 2.5 C 0.890625 2.5 0.9375 2.390625 0.96875 2.296875 Z M 4.359375 -7.09375 "/>
</g>
<g id="glyph-0-12">
<path d="M 2.21875 -1.71875 C 1.34375 -1.71875 1.34375 -2.71875 1.34375 -2.9375 C 1.34375 -3.203125 1.359375 -3.53125 1.5 -3.78125 C 1.578125 -3.890625 1.8125 -4.171875 2.21875 -4.171875 C 3.078125 -4.171875 3.078125 -3.1875 3.078125 -2.953125 C 3.078125 -2.6875 3.078125 -2.359375 2.921875 -2.109375 C 2.84375 -2 2.609375 -1.71875 2.21875 -1.71875 Z M 1.0625 -1.328125 C 1.0625 -1.359375 1.0625 -1.59375 1.21875 -1.796875 C 1.609375 -1.515625 2.03125 -1.484375 2.21875 -1.484375 C 3.140625 -1.484375 3.828125 -2.171875 3.828125 -2.9375 C 3.828125 -3.3125 3.671875 -3.671875 3.421875 -3.90625 C 3.78125 -4.25 4.140625 -4.296875 4.3125 -4.296875 C 4.34375 -4.296875 4.390625 -4.296875 4.421875 -4.28125 C 4.3125 -4.25 4.25 -4.140625 4.25 -4.015625 C 4.25 -3.84375 4.390625 -3.734375 4.546875 -3.734375 C 4.640625 -3.734375 4.828125 -3.796875 4.828125 -4.03125 C 4.828125 -4.203125 4.71875 -4.515625 4.328125 -4.515625 C 4.125 -4.515625 3.6875 -4.453125 3.265625 -4.046875 C 2.84375 -4.375 2.4375 -4.40625 2.21875 -4.40625 C 1.28125 -4.40625 0.59375 -3.71875 0.59375 -2.953125 C 0.59375 -2.515625 0.8125 -2.140625 1.0625 -1.921875 C 0.9375 -1.78125 0.75 -1.453125 0.75 -1.09375 C 0.75 -0.78125 0.890625 -0.40625 1.203125 -0.203125 C 0.59375 -0.046875 0.28125 0.390625 0.28125 0.78125 C 0.28125 1.5 1.265625 2.046875 2.484375 2.046875 C 3.65625 2.046875 4.6875 1.546875 4.6875 0.765625 C 4.6875 0.421875 4.5625 -0.09375 4.046875 -0.375 C 3.515625 -0.640625 2.9375 -0.640625 2.328125 -0.640625 C 2.078125 -0.640625 1.65625 -0.640625 1.578125 -0.65625 C 1.265625 -0.703125 1.0625 -1 1.0625 -1.328125 Z M 2.5 1.828125 C 1.484375 1.828125 0.796875 1.3125 0.796875 0.78125 C 0.796875 0.328125 1.171875 -0.046875 1.609375 -0.0625 L 2.203125 -0.0625 C 3.0625 -0.0625 4.171875 -0.0625 4.171875 0.78125 C 4.171875 1.328125 3.46875 1.828125 2.5 1.828125 Z M 2.5 1.828125 "/>
</g>
<g id="glyph-0-13">
<path d="M 1.71875 -3.75 L 1.71875 -4.40625 L 0.28125 -4.296875 L 0.28125 -3.984375 C 0.984375 -3.984375 1.0625 -3.921875 1.0625 -3.484375 L 1.0625 1.171875 C 1.0625 1.625 0.953125 1.625 0.28125 1.625 L 0.28125 1.9375 C 0.625 1.921875 1.140625 1.90625 1.390625 1.90625 C 1.671875 1.90625 2.171875 1.921875 2.515625 1.9375 L 2.515625 1.625 C 1.859375 1.625 1.75 1.625 1.75 1.171875 L 1.75 -0.59375 C 1.796875 -0.421875 2.21875 0.109375 2.96875 0.109375 C 4.15625 0.109375 5.1875 -0.875 5.1875 -2.15625 C 5.1875 -3.421875 4.234375 -4.40625 3.109375 -4.40625 C 2.328125 -4.40625 1.90625 -3.96875 1.71875 -3.75 Z M 1.75 -1.140625 L 1.75 -3.359375 C 2.03125 -3.875 2.515625 -4.15625 3.03125 -4.15625 C 3.765625 -4.15625 4.359375 -3.28125 4.359375 -2.15625 C 4.359375 -0.953125 3.671875 -0.109375 2.9375 -0.109375 C 2.53125 -0.109375 2.15625 -0.3125 1.890625 -0.71875 C 1.75 -0.921875 1.75 -0.9375 1.75 -1.140625 Z M 1.75 -1.140625 "/>
</g>
<g id="glyph-0-14">
<path d="M 1.671875 -3.3125 L 1.671875 -4.40625 L 0.28125 -4.296875 L 0.28125 -3.984375 C 0.984375 -3.984375 1.0625 -3.921875 1.0625 -3.421875 L 1.0625 -0.75 C 1.0625 -0.3125 0.953125 -0.3125 0.28125 -0.3125 L 0.28125 0 C 0.671875 -0.015625 1.140625 -0.03125 1.421875 -0.03125 C 1.8125 -0.03125 2.28125 -0.03125 2.6875 0 L 2.6875 -0.3125 L 2.46875 -0.3125 C 1.734375 -0.3125 1.71875 -0.421875 1.71875 -0.78125 L 1.71875 -2.3125 C 1.71875 -3.296875 2.140625 -4.1875 2.890625 -4.1875 C 2.953125 -4.1875 2.984375 -4.1875 3 -4.171875 C 2.96875 -4.171875 2.765625 -4.046875 2.765625 -3.78125 C 2.765625 -3.515625 2.984375 -3.359375 3.203125 -3.359375 C 3.375 -3.359375 3.625 -3.484375 3.625 -3.796875 C 3.625 -4.109375 3.3125 -4.40625 2.890625 -4.40625 C 2.15625 -4.40625 1.796875 -3.734375 1.671875 -3.3125 Z M 1.671875 -3.3125 "/>
</g>
<g id="glyph-0-15">
<path d="M 3.78125 -0.546875 L 3.78125 0.109375 L 5.25 0 L 5.25 -0.3125 C 4.5625 -0.3125 4.46875 -0.375 4.46875 -0.875 L 4.46875 -6.921875 L 3.046875 -6.8125 L 3.046875 -6.5 C 3.734375 -6.5 3.8125 -6.4375 3.8125 -5.9375 L 3.8125 -3.78125 C 3.53125 -4.140625 3.09375 -4.40625 2.5625 -4.40625 C 1.390625 -4.40625 0.34375 -3.421875 0.34375 -2.140625 C 0.34375 -0.875 1.3125 0.109375 2.453125 0.109375 C 3.09375 0.109375 3.53125 -0.234375 3.78125 -0.546875 Z M 3.78125 -3.21875 L 3.78125 -1.171875 C 3.78125 -1 3.78125 -0.984375 3.671875 -0.8125 C 3.375 -0.328125 2.9375 -0.109375 2.5 -0.109375 C 2.046875 -0.109375 1.6875 -0.375 1.453125 -0.75 C 1.203125 -1.15625 1.171875 -1.71875 1.171875 -2.140625 C 1.171875 -2.5 1.1875 -3.09375 1.46875 -3.546875 C 1.6875 -3.859375 2.0625 -4.1875 2.609375 -4.1875 C 2.953125 -4.1875 3.375 -4.03125 3.671875 -3.59375 C 3.78125 -3.421875 3.78125 -3.40625 3.78125 -3.21875 Z M 3.78125 -3.21875 "/>
</g>
<g id="glyph-0-16">
<path d="M 3.296875 -3.984375 C 3.75 -3.984375 3.8125 -3.859375 3.8125 -3.453125 L 3.8125 -0.75 C 3.8125 -0.3125 3.703125 -0.3125 3.046875 -0.3125 L 3.046875 0 C 3.375 -0.015625 3.890625 -0.03125 4.140625 -0.03125 C 4.390625 -0.03125 4.890625 -0.015625 5.25 0 L 5.25 -0.3125 C 4.578125 -0.3125 4.46875 -0.3125 4.46875 -0.75 L 4.46875 -4.421875 L 3.21875 -4.328125 C 3.0625 -4.3125 3.046875 -4.3125 3.046875 -4.3125 C 3.015625 -4.296875 3 -4.296875 2.859375 -4.296875 L 1.6875 -4.296875 L 1.6875 -5.421875 C 1.6875 -6.40625 2.546875 -6.8125 3.15625 -6.8125 C 3.453125 -6.8125 3.8125 -6.703125 4.015625 -6.484375 C 3.609375 -6.453125 3.546875 -6.1875 3.546875 -6.015625 C 3.546875 -5.6875 3.8125 -5.5625 4 -5.5625 C 4.234375 -5.5625 4.453125 -5.71875 4.453125 -6.015625 C 4.453125 -6.609375 3.90625 -7.03125 3.171875 -7.03125 C 2.25 -7.03125 1.0625 -6.515625 1.0625 -5.4375 L 1.0625 -4.296875 L 0.265625 -4.296875 L 0.265625 -3.984375 L 1.0625 -3.984375 L 1.0625 -0.75 C 1.0625 -0.3125 0.953125 -0.3125 0.28125 -0.3125 L 0.28125 0 C 0.609375 -0.015625 1.140625 -0.03125 1.390625 -0.03125 C 1.640625 -0.03125 2.125 -0.015625 2.5 0 L 2.5 -0.3125 C 1.828125 -0.3125 1.71875 -0.3125 1.71875 -0.75 L 1.71875 -3.984375 Z M 3.296875 -3.984375 "/>
</g>
<g id="glyph-0-17">
<path d="M 1.09375 -3.421875 L 1.09375 -0.75 C 1.09375 -0.3125 0.984375 -0.3125 0.3125 -0.3125 L 0.3125 0 C 0.671875 -0.015625 1.171875 -0.03125 1.453125 -0.03125 C 1.703125 -0.03125 2.21875 -0.015625 2.5625 0 L 2.5625 -0.3125 C 1.890625 -0.3125 1.78125 -0.3125 1.78125 -0.75 L 1.78125 -2.59375 C 1.78125 -3.625 2.5 -4.1875 3.125 -4.1875 C 3.765625 -4.1875 3.875 -3.65625 3.875 -3.078125 L 3.875 -0.75 C 3.875 -0.3125 3.765625 -0.3125 3.09375 -0.3125 L 3.09375 0 C 3.4375 -0.015625 3.953125 -0.03125 4.21875 -0.03125 C 4.46875 -0.03125 5 -0.015625 5.328125 0 L 5.328125 -0.3125 C 4.8125 -0.3125 4.5625 -0.3125 4.5625 -0.609375 L 4.5625 -2.515625 C 4.5625 -3.375 4.5625 -3.671875 4.25 -4.03125 C 4.109375 -4.203125 3.78125 -4.40625 3.203125 -4.40625 C 2.46875 -4.40625 2 -3.984375 1.71875 -3.359375 L 1.71875 -4.40625 L 0.3125 -4.296875 L 0.3125 -3.984375 C 1.015625 -3.984375 1.09375 -3.921875 1.09375 -3.421875 Z M 1.09375 -3.421875 "/>
</g>
<g id="glyph-0-18">
<path d="M 4.6875 -2.140625 C 4.6875 -3.40625 3.703125 -4.46875 2.5 -4.46875 C 1.25 -4.46875 0.28125 -3.375 0.28125 -2.140625 C 0.28125 -0.84375 1.3125 0.109375 2.484375 0.109375 C 3.6875 0.109375 4.6875 -0.875 4.6875 -2.140625 Z M 2.5 -0.140625 C 2.0625 -0.140625 1.625 -0.34375 1.359375 -0.8125 C 1.109375 -1.25 1.109375 -1.859375 1.109375 -2.21875 C 1.109375 -2.609375 1.109375 -3.140625 1.34375 -3.578125 C 1.609375 -4.03125 2.078125 -4.25 2.484375 -4.25 C 2.921875 -4.25 3.34375 -4.03125 3.609375 -3.59375 C 3.875 -3.171875 3.875 -2.59375 3.875 -2.21875 C 3.875 -1.859375 3.875 -1.3125 3.65625 -0.875 C 3.421875 -0.421875 2.984375 -0.140625 2.5 -0.140625 Z M 2.5 -0.140625 "/>
</g>
<g id="glyph-0-19">
<path d="M 1.71875 -3.765625 L 1.71875 -6.921875 L 0.28125 -6.8125 L 0.28125 -6.5 C 0.984375 -6.5 1.0625 -6.4375 1.0625 -5.9375 L 1.0625 0 L 1.3125 0 C 1.3125 -0.015625 1.390625 -0.15625 1.671875 -0.625 C 1.8125 -0.390625 2.234375 0.109375 2.96875 0.109375 C 4.15625 0.109375 5.1875 -0.875 5.1875 -2.15625 C 5.1875 -3.421875 4.21875 -4.40625 3.078125 -4.40625 C 2.296875 -4.40625 1.875 -3.9375 1.71875 -3.765625 Z M 1.75 -1.140625 L 1.75 -3.1875 C 1.75 -3.375 1.75 -3.390625 1.859375 -3.546875 C 2.25 -4.109375 2.796875 -4.1875 3.03125 -4.1875 C 3.484375 -4.1875 3.84375 -3.921875 4.078125 -3.546875 C 4.34375 -3.140625 4.359375 -2.578125 4.359375 -2.15625 C 4.359375 -1.796875 4.34375 -1.203125 4.0625 -0.75 C 3.84375 -0.4375 3.46875 -0.109375 2.9375 -0.109375 C 2.484375 -0.109375 2.125 -0.34375 1.890625 -0.71875 C 1.75 -0.921875 1.75 -0.953125 1.75 -1.140625 Z M 1.75 -1.140625 "/>
</g>
<g id="glyph-0-20">
<path d="M 4.140625 -3.3125 C 4.234375 -3.546875 4.40625 -3.984375 5.0625 -3.984375 L 5.0625 -4.296875 C 4.828125 -4.28125 4.546875 -4.265625 4.3125 -4.265625 C 4.078125 -4.265625 3.625 -4.28125 3.453125 -4.296875 L 3.453125 -3.984375 C 3.8125 -3.984375 3.921875 -3.75 3.921875 -3.5625 C 3.921875 -3.46875 3.90625 -3.421875 3.875 -3.3125 L 2.84375 -0.78125 L 1.734375 -3.5625 C 1.671875 -3.6875 1.671875 -3.703125 1.671875 -3.734375 C 1.671875 -3.984375 2.0625 -3.984375 2.25 -3.984375 L 2.25 -4.296875 C 1.9375 -4.28125 1.390625 -4.265625 1.15625 -4.265625 C 0.890625 -4.265625 0.484375 -4.28125 0.1875 -4.296875 L 0.1875 -3.984375 C 0.8125 -3.984375 0.859375 -3.921875 0.984375 -3.625 L 2.421875 -0.078125 C 2.484375 0.0625 2.5 0.109375 2.625 0.109375 C 2.765625 0.109375 2.796875 0.015625 2.84375 -0.078125 Z M 4.140625 -3.3125 "/>
</g>
<g id="glyph-0-21">
<path d="M 3.3125 -0.75 C 3.359375 -0.359375 3.625 0.0625 4.09375 0.0625 C 4.3125 0.0625 4.921875 -0.078125 4.921875 -0.890625 L 4.921875 -1.453125 L 4.671875 -1.453125 L 4.671875 -0.890625 C 4.671875 -0.3125 4.421875 -0.25 4.3125 -0.25 C 3.984375 -0.25 3.9375 -0.703125 3.9375 -0.75 L 3.9375 -2.734375 C 3.9375 -3.15625 3.9375 -3.546875 3.578125 -3.921875 C 3.1875 -4.3125 2.6875 -4.46875 2.21875 -4.46875 C 1.390625 -4.46875 0.703125 -4 0.703125 -3.34375 C 0.703125 -3.046875 0.90625 -2.875 1.171875 -2.875 C 1.453125 -2.875 1.625 -3.078125 1.625 -3.328125 C 1.625 -3.453125 1.578125 -3.78125 1.109375 -3.78125 C 1.390625 -4.140625 1.875 -4.25 2.1875 -4.25 C 2.6875 -4.25 3.25 -3.859375 3.25 -2.96875 L 3.25 -2.609375 C 2.734375 -2.578125 2.046875 -2.546875 1.421875 -2.25 C 0.671875 -1.90625 0.421875 -1.390625 0.421875 -0.953125 C 0.421875 -0.140625 1.390625 0.109375 2.015625 0.109375 C 2.671875 0.109375 3.125 -0.296875 3.3125 -0.75 Z M 3.25 -2.390625 L 3.25 -1.390625 C 3.25 -0.453125 2.53125 -0.109375 2.078125 -0.109375 C 1.59375 -0.109375 1.1875 -0.453125 1.1875 -0.953125 C 1.1875 -1.5 1.609375 -2.328125 3.25 -2.390625 Z M 3.25 -2.390625 "/>
</g>
<g id="glyph-0-22">
<path d="M 1.765625 -6.921875 L 0.328125 -6.8125 L 0.328125 -6.5 C 1.03125 -6.5 1.109375 -6.4375 1.109375 -5.9375 L 1.109375 -0.75 C 1.109375 -0.3125 1 -0.3125 0.328125 -0.3125 L 0.328125 0 C 0.65625 -0.015625 1.1875 -0.03125 1.4375 -0.03125 C 1.6875 -0.03125 2.171875 -0.015625 2.546875 0 L 2.546875 -0.3125 C 1.875 -0.3125 1.765625 -0.3125 1.765625 -0.75 Z M 1.765625 -6.921875 "/>
</g>
<g id="glyph-0-23">
<path d="M 1.765625 -4.40625 L 0.375 -4.296875 L 0.375 -3.984375 C 1.015625 -3.984375 1.109375 -3.921875 1.109375 -3.4375 L 1.109375 -0.75 C 1.109375 -0.3125 1 -0.3125 0.328125 -0.3125 L 0.328125 0 C 0.640625 -0.015625 1.1875 -0.03125 1.421875 -0.03125 C 1.78125 -0.03125 2.125 -0.015625 2.46875 0 L 2.46875 -0.3125 C 1.796875 -0.3125 1.765625 -0.359375 1.765625 -0.75 Z M 1.796875 -6.140625 C 1.796875 -6.453125 1.5625 -6.671875 1.28125 -6.671875 C 0.96875 -6.671875 0.75 -6.40625 0.75 -6.140625 C 0.75 -5.875 0.96875 -5.609375 1.28125 -5.609375 C 1.5625 -5.609375 1.796875 -5.828125 1.796875 -6.140625 Z M 1.796875 -6.140625 "/>
</g>
<g id="glyph-0-24">
<path d="M 1.171875 -2.171875 C 1.171875 -3.796875 1.984375 -4.21875 2.515625 -4.21875 C 2.609375 -4.21875 3.234375 -4.203125 3.578125 -3.84375 C 3.171875 -3.8125 3.109375 -3.515625 3.109375 -3.390625 C 3.109375 -3.125 3.296875 -2.9375 3.5625 -2.9375 C 3.828125 -2.9375 4.03125 -3.09375 4.03125 -3.40625 C 4.03125 -4.078125 3.265625 -4.46875 2.5 -4.46875 C 1.25 -4.46875 0.34375 -3.390625 0.34375 -2.15625 C 0.34375 -0.875 1.328125 0.109375 2.484375 0.109375 C 3.8125 0.109375 4.140625 -1.09375 4.140625 -1.1875 C 4.140625 -1.28125 4.03125 -1.28125 4 -1.28125 C 3.921875 -1.28125 3.890625 -1.25 3.875 -1.1875 C 3.59375 -0.265625 2.9375 -0.140625 2.578125 -0.140625 C 2.046875 -0.140625 1.171875 -0.5625 1.171875 -2.171875 Z M 1.171875 -2.171875 "/>
</g>
<g id="glyph-0-25">
<path d="M 2.09375 -4.40625 L 0.578125 -4.296875 L 0.578125 -3.984375 C 1.34375 -3.984375 1.4375 -3.921875 1.4375 -3.421875 L 1.4375 0.515625 C 1.4375 0.96875 1.34375 1.828125 0.703125 1.828125 C 0.65625 1.828125 0.421875 1.828125 0.171875 1.6875 C 0.3125 1.65625 0.515625 1.515625 0.515625 1.25 C 0.515625 0.984375 0.34375 0.78125 0.0625 0.78125 C -0.21875 0.78125 -0.40625 0.984375 -0.40625 1.25 C -0.40625 1.765625 0.15625 2.046875 0.734375 2.046875 C 1.46875 2.046875 2.09375 1.40625 2.09375 0.5 Z M 2.09375 -6.140625 C 2.09375 -6.4375 1.859375 -6.671875 1.5625 -6.671875 C 1.28125 -6.671875 1.03125 -6.4375 1.03125 -6.140625 C 1.03125 -5.859375 1.28125 -5.609375 1.5625 -5.609375 C 1.859375 -5.609375 2.09375 -5.859375 2.09375 -6.140625 Z M 2.09375 -6.140625 "/>
</g>
<g id="glyph-1-0">
<path d="M 7.203125 -2.734375 L 6.734375 -2.734375 C 6.515625 -1.359375 6.234375 -0.46875 4.390625 -0.46875 L 2.875 -0.46875 L 2.875 -3.28125 L 3.421875 -3.28125 C 4.390625 -3.28125 4.484375 -2.84375 4.484375 -2.109375 L 4.953125 -2.109375 L 4.953125 -4.921875 L 4.484375 -4.921875 C 4.484375 -4.171875 4.390625 -3.75 3.421875 -3.75 L 2.875 -3.75 L 2.875 -6.3125 L 4.390625 -6.3125 C 6 -6.3125 6.265625 -5.578125 6.421875 -4.375 L 6.890625 -4.375 L 6.578125 -6.78125 L 0.390625 -6.78125 L 0.390625 -6.3125 L 1.46875 -6.3125 L 1.46875 -0.46875 L 0.390625 -0.46875 L 0.390625 0 L 6.75 0 Z M 7.203125 -2.734375 "/>
</g>
<g id="glyph-1-1">
<path d="M 1.140625 -3.546875 L 1.140625 -0.46875 L 0.453125 -0.46875 L 0.453125 0 C 0.734375 -0.015625 1.328125 -0.03125 1.703125 -0.03125 C 2.09375 -0.03125 2.6875 -0.015625 2.953125 0 L 2.953125 -0.46875 L 2.265625 -0.46875 L 2.265625 -2.546875 C 2.265625 -3.640625 3.125 -4.125 3.765625 -4.125 C 4.09375 -4.125 4.3125 -3.921875 4.3125 -3.15625 L 4.3125 -0.46875 L 3.625 -0.46875 L 3.625 0 C 3.890625 -0.015625 4.5 -0.03125 4.875 -0.03125 C 5.265625 -0.03125 5.859375 -0.015625 6.125 0 L 6.125 -0.46875 L 5.4375 -0.46875 L 5.4375 -3.046875 C 5.4375 -4.09375 4.90625 -4.484375 3.90625 -4.484375 C 2.953125 -4.484375 2.421875 -3.921875 2.15625 -3.40625 L 2.15625 -4.484375 L 0.453125 -4.40625 L 0.453125 -3.9375 C 1.0625 -3.9375 1.140625 -3.9375 1.140625 -3.546875 Z M 1.140625 -3.546875 "/>
</g>
<g id="glyph-1-2">
<path d="M 5.046875 -3.75 C 5.109375 -3.890625 5.140625 -3.953125 5.78125 -3.953125 L 5.78125 -4.421875 C 5.53125 -4.40625 5.25 -4.390625 5 -4.390625 C 4.75 -4.390625 4.296875 -4.421875 4.09375 -4.421875 L 4.09375 -3.953125 C 4.28125 -3.953125 4.5625 -3.921875 4.5625 -3.84375 C 4.5625 -3.84375 4.5625 -3.8125 4.515625 -3.734375 L 3.359375 -1.234375 L 2.09375 -3.953125 L 2.625 -3.953125 L 2.625 -4.421875 C 2.296875 -4.40625 1.40625 -4.390625 1.390625 -4.390625 C 1.109375 -4.390625 0.671875 -4.421875 0.265625 -4.421875 L 0.265625 -3.953125 L 0.890625 -3.953125 L 2.640625 -0.203125 C 2.765625 0.046875 2.890625 0.046875 3.015625 0.046875 C 3.1875 0.046875 3.296875 0.015625 3.390625 -0.203125 Z M 5.046875 -3.75 "/>
</g>
<g id="glyph-1-3">
<path d="M 2.234375 -4.484375 L 0.5 -4.40625 L 0.5 -3.9375 C 1.09375 -3.9375 1.15625 -3.9375 1.15625 -3.546875 L 1.15625 -0.46875 L 0.46875 -0.46875 L 0.46875 0 C 0.78125 -0.015625 1.265625 -0.03125 1.6875 -0.03125 C 1.984375 -0.03125 2.5 -0.015625 2.84375 0 L 2.84375 -0.46875 L 2.234375 -0.46875 Z M 2.328125 -6.15625 C 2.328125 -6.59375 1.96875 -6.921875 1.5625 -6.921875 C 1.125 -6.921875 0.78125 -6.578125 0.78125 -6.15625 C 0.78125 -5.71875 1.125 -5.375 1.5625 -5.375 C 1.96875 -5.375 2.328125 -5.71875 2.328125 -6.15625 Z M 2.328125 -6.15625 "/>
</g>
<g id="glyph-1-4">
<path d="M 2.03125 -3.359375 L 2.03125 -4.484375 L 0.375 -4.40625 L 0.375 -3.9375 C 0.984375 -3.9375 1.0625 -3.9375 1.0625 -3.546875 L 1.0625 -0.46875 L 0.375 -0.46875 L 0.375 0 C 0.71875 -0.015625 1.171875 -0.03125 1.625 -0.03125 C 2 -0.03125 2.640625 -0.03125 3 0 L 3 -0.46875 L 2.140625 -0.46875 L 2.140625 -2.21875 C 2.140625 -2.90625 2.375 -4.125 3.375 -4.125 C 3.375 -4.109375 3.1875 -3.953125 3.1875 -3.671875 C 3.1875 -3.265625 3.515625 -3.0625 3.796875 -3.0625 C 4.09375 -3.0625 4.40625 -3.265625 4.40625 -3.671875 C 4.40625 -4.203125 3.875 -4.484375 3.34375 -4.484375 C 2.65625 -4.484375 2.25 -3.984375 2.03125 -3.359375 Z M 2.03125 -3.359375 "/>
</g>
<g id="glyph-1-5">
<path d="M 5.40625 -2.171875 C 5.40625 -3.515625 4.484375 -4.515625 2.859375 -4.515625 C 1.21875 -4.515625 0.3125 -3.5 0.3125 -2.171875 C 0.3125 -0.9375 1.203125 0.0625 2.859375 0.0625 C 4.53125 0.0625 5.40625 -0.953125 5.40625 -2.171875 Z M 2.859375 -0.34375 C 1.59375 -0.34375 1.59375 -1.421875 1.59375 -2.28125 C 1.59375 -2.734375 1.59375 -3.234375 1.765625 -3.578125 C 1.953125 -3.953125 2.375 -4.15625 2.859375 -4.15625 C 3.28125 -4.15625 3.703125 -4 3.921875 -3.65625 C 4.125 -3.3125 4.125 -2.765625 4.125 -2.28125 C 4.125 -1.421875 4.125 -0.34375 2.859375 -0.34375 Z M 2.859375 -0.34375 "/>
</g>
<g id="glyph-1-6">
<path d="M 1.140625 -3.546875 L 1.140625 -0.46875 L 0.453125 -0.46875 L 0.453125 0 C 0.734375 -0.015625 1.328125 -0.03125 1.703125 -0.03125 C 2.09375 -0.03125 2.6875 -0.015625 2.953125 0 L 2.953125 -0.46875 L 2.265625 -0.46875 L 2.265625 -2.546875 C 2.265625 -3.640625 3.140625 -4.125 3.765625 -4.125 C 4.09375 -4.125 4.3125 -3.921875 4.3125 -3.15625 L 4.3125 -0.46875 L 3.625 -0.46875 L 3.625 0 C 3.90625 -0.015625 4.5 -0.03125 4.890625 -0.03125 C 5.28125 -0.03125 5.859375 -0.015625 6.140625 0 L 6.140625 -0.46875 L 5.453125 -0.46875 L 5.453125 -2.546875 C 5.453125 -3.640625 6.3125 -4.125 6.9375 -4.125 C 7.28125 -4.125 7.5 -3.921875 7.5 -3.15625 L 7.5 -0.46875 L 6.8125 -0.46875 L 6.8125 0 C 7.09375 -0.015625 7.6875 -0.03125 8.0625 -0.03125 C 8.453125 -0.03125 9.046875 -0.015625 9.328125 0 L 9.328125 -0.46875 L 8.640625 -0.46875 L 8.640625 -3.046875 C 8.640625 -4.078125 8.125 -4.484375 7.09375 -4.484375 C 6.1875 -4.484375 5.671875 -3.984375 5.40625 -3.53125 C 5.21875 -4.453125 4.296875 -4.484375 3.921875 -4.484375 C 3.046875 -4.484375 2.484375 -4.03125 2.15625 -3.40625 L 2.15625 -4.484375 L 0.453125 -4.40625 L 0.453125 -3.9375 C 1.0625 -3.9375 1.140625 -3.9375 1.140625 -3.546875 Z M 1.140625 -3.546875 "/>
</g>
<g id="glyph-1-7">
<path d="M 4.609375 -2.171875 C 4.828125 -2.171875 4.921875 -2.171875 4.921875 -2.4375 C 4.921875 -2.75 4.859375 -3.484375 4.359375 -3.984375 C 4 -4.34375 3.46875 -4.515625 2.78125 -4.515625 C 1.1875 -4.515625 0.3125 -3.484375 0.3125 -2.25 C 0.3125 -0.90625 1.3125 0.0625 2.921875 0.0625 C 4.5 0.0625 4.921875 -1 4.921875 -1.171875 C 4.921875 -1.34375 4.734375 -1.34375 4.6875 -1.34375 C 4.515625 -1.34375 4.5 -1.296875 4.4375 -1.140625 C 4.234375 -0.65625 3.65625 -0.34375 3.015625 -0.34375 C 1.609375 -0.34375 1.59375 -1.671875 1.59375 -2.171875 Z M 1.59375 -2.5 C 1.609375 -2.890625 1.625 -3.3125 1.828125 -3.640625 C 2.09375 -4.03125 2.5 -4.15625 2.78125 -4.15625 C 3.953125 -4.15625 3.96875 -2.84375 3.984375 -2.5 Z M 1.59375 -2.5 "/>
</g>
<g id="glyph-1-8">
<path d="M 1.03125 -3.953125 L 1.03125 -1.21875 C 1.03125 -0.15625 1.890625 0.0625 2.609375 0.0625 C 3.359375 0.0625 3.8125 -0.515625 3.8125 -1.234375 L 3.8125 -1.765625 L 3.34375 -1.765625 L 3.34375 -1.25 C 3.34375 -0.578125 3.015625 -0.34375 2.734375 -0.34375 C 2.15625 -0.34375 2.15625 -0.984375 2.15625 -1.203125 L 2.15625 -3.953125 L 3.625 -3.953125 L 3.625 -4.421875 L 2.15625 -4.421875 L 2.15625 -6.328125 L 1.6875 -6.328125 C 1.6875 -5.328125 1.203125 -4.34375 0.203125 -4.3125 L 0.203125 -3.953125 Z M 1.03125 -3.953125 "/>
</g>
<g id="glyph-1-9">
<path d="M 4 -4.125 L 2.5625 -4.4375 C 2.15625 -4.53125 1.609375 -4.859375 1.609375 -5.46875 C 1.609375 -5.90625 1.890625 -6.515625 2.875 -6.515625 C 3.671875 -6.515625 4.6875 -6.1875 4.921875 -4.828125 C 4.953125 -4.578125 4.953125 -4.5625 5.15625 -4.5625 C 5.40625 -4.5625 5.40625 -4.609375 5.40625 -4.84375 L 5.40625 -6.671875 C 5.40625 -6.859375 5.40625 -6.953125 5.21875 -6.953125 C 5.140625 -6.953125 5.140625 -6.9375 5.03125 -6.84375 L 4.578125 -6.40625 C 4 -6.859375 3.34375 -6.953125 2.875 -6.953125 C 1.359375 -6.953125 0.640625 -5.984375 0.640625 -4.9375 C 0.640625 -4.296875 0.96875 -3.84375 1.171875 -3.625 C 1.671875 -3.125 2 -3.0625 3.09375 -2.828125 C 3.96875 -2.625 4.140625 -2.609375 4.359375 -2.390625 C 4.5 -2.25 4.75 -1.984375 4.75 -1.53125 C 4.75 -1.046875 4.5 -0.359375 3.453125 -0.359375 C 2.703125 -0.359375 1.1875 -0.5625 1.109375 -2.046875 C 1.09375 -2.21875 1.09375 -2.265625 0.875 -2.265625 C 0.640625 -2.265625 0.640625 -2.21875 0.640625 -1.984375 L 0.640625 -0.171875 C 0.640625 0.015625 0.640625 0.109375 0.8125 0.109375 C 0.90625 0.109375 0.921875 0.09375 1 0.015625 L 1.46875 -0.4375 C 2.125 0.046875 3.046875 0.109375 3.453125 0.109375 C 5.109375 0.109375 5.71875 -1.015625 5.71875 -2.03125 C 5.71875 -3.125 4.921875 -3.9375 4 -4.125 Z M 4 -4.125 "/>
</g>
<g id="glyph-1-10">
<path d="M 4.359375 -0.71875 L 4.359375 0.0625 L 6.125 0 L 6.125 -0.46875 C 5.515625 -0.46875 5.4375 -0.46875 5.4375 -0.859375 L 5.4375 -4.484375 L 3.625 -4.40625 L 3.625 -3.9375 C 4.234375 -3.9375 4.3125 -3.9375 4.3125 -3.546875 L 4.3125 -1.640625 C 4.3125 -0.828125 3.796875 -0.296875 3.078125 -0.296875 C 2.296875 -0.296875 2.265625 -0.546875 2.265625 -1.09375 L 2.265625 -4.484375 L 0.453125 -4.40625 L 0.453125 -3.9375 C 1.0625 -3.9375 1.140625 -3.9375 1.140625 -3.546875 L 1.140625 -1.21875 C 1.140625 -0.15625 1.9375 0.0625 2.9375 0.0625 C 3.1875 0.0625 3.90625 0.0625 4.359375 -0.71875 Z M 4.359375 -0.71875 "/>
</g>
<g id="glyph-1-11">
<path d="M 2.1875 -3.28125 C 2.1875 -3.46875 2.203125 -3.484375 2.34375 -3.625 C 2.734375 -4.03125 3.265625 -4.09375 3.484375 -4.09375 C 4.140625 -4.09375 4.703125 -3.484375 4.703125 -2.21875 C 4.703125 -0.8125 4 -0.296875 3.359375 -0.296875 C 3.21875 -0.296875 2.75 -0.296875 2.296875 -0.84375 C 2.1875 -0.96875 2.1875 -0.984375 2.1875 -1.171875 Z M 2.1875 -0.390625 C 2.625 -0.046875 3.0625 0.0625 3.46875 0.0625 C 4.96875 0.0625 5.984375 -0.84375 5.984375 -2.21875 C 5.984375 -3.546875 5.078125 -4.484375 3.640625 -4.484375 C 2.890625 -4.484375 2.359375 -4.171875 2.140625 -4 L 2.140625 -4.484375 L 0.375 -4.40625 L 0.375 -3.9375 C 0.984375 -3.9375 1.0625 -3.9375 1.0625 -3.5625 L 1.0625 1.46875 L 0.375 1.46875 L 0.375 1.9375 C 0.640625 1.921875 1.25 1.90625 1.625 1.90625 C 2.015625 1.90625 2.609375 1.921875 2.875 1.9375 L 2.875 1.46875 L 2.1875 1.46875 Z M 2.1875 -0.390625 "/>
</g>
<g id="glyph-1-12">
<path d="M 7.96875 -3.375 C 7.96875 -5.53125 6.515625 -6.953125 4.3125 -6.953125 C 2.03125 -6.953125 0.640625 -5.46875 0.640625 -3.375 C 0.640625 -1.3125 2.03125 0.109375 4.296875 0.109375 C 6.59375 0.109375 7.96875 -1.328125 7.96875 -3.375 Z M 4.296875 -0.3125 C 3.703125 -0.3125 2.984375 -0.59375 2.578125 -1.34375 C 2.25 -1.96875 2.15625 -2.671875 2.15625 -3.53125 C 2.15625 -4.171875 2.1875 -5.015625 2.625 -5.6875 C 3.046875 -6.296875 3.703125 -6.546875 4.296875 -6.546875 C 4.9375 -6.546875 5.625 -6.265625 6.015625 -5.609375 C 6.40625 -4.96875 6.4375 -4.203125 6.4375 -3.53125 C 6.4375 -2.828125 6.40625 -1.9375 5.984375 -1.25 C 5.53125 -0.53125 4.828125 -0.3125 4.296875 -0.3125 Z M 4.296875 -0.3125 "/>
</g>
<g id="glyph-1-13">
<path d="M 2.140625 -4 L 2.140625 -6.921875 L 0.375 -6.84375 L 0.375 -6.375 C 0.984375 -6.375 1.0625 -6.375 1.0625 -5.984375 L 1.0625 0 L 1.53125 0 L 2.015625 -0.5625 C 2.09375 -0.484375 2.578125 0.0625 3.46875 0.0625 C 4.953125 0.0625 5.984375 -0.84375 5.984375 -2.21875 C 5.984375 -3.546875 5.046875 -4.484375 3.59375 -4.484375 C 2.875 -4.484375 2.375 -4.203125 2.140625 -4 Z M 2.1875 -0.984375 L 2.1875 -3.484375 C 2.46875 -3.84375 2.9375 -4.125 3.484375 -4.125 C 4.703125 -4.125 4.703125 -2.921875 4.703125 -2.21875 C 4.703125 -1.75 4.703125 -1.203125 4.453125 -0.8125 C 4.15625 -0.40625 3.703125 -0.296875 3.375 -0.296875 C 2.6875 -0.296875 2.296875 -0.84375 2.1875 -0.984375 Z M 2.1875 -0.984375 "/>
</g>
<g id="glyph-1-14">
<path d="M 2.109375 -2.9375 C 1.734375 -3 1.09375 -3.109375 1.09375 -3.578125 C 1.09375 -4.203125 2.015625 -4.203125 2.203125 -4.203125 C 2.953125 -4.203125 3.328125 -3.90625 3.375 -3.359375 C 3.390625 -3.203125 3.40625 -3.15625 3.609375 -3.15625 C 3.84375 -3.15625 3.84375 -3.203125 3.84375 -3.4375 L 3.84375 -4.234375 C 3.84375 -4.421875 3.84375 -4.515625 3.671875 -4.515625 C 3.625 -4.515625 3.609375 -4.515625 3.21875 -4.328125 C 2.953125 -4.453125 2.609375 -4.515625 2.21875 -4.515625 C 1.90625 -4.515625 0.375 -4.515625 0.375 -3.203125 C 0.375 -2.8125 0.578125 -2.546875 0.78125 -2.375 C 1.171875 -2.03125 1.5625 -1.96875 2.328125 -1.828125 C 2.6875 -1.765625 3.421875 -1.640625 3.421875 -1.046875 C 3.421875 -0.296875 2.515625 -0.296875 2.296875 -0.296875 C 1.234375 -0.296875 0.984375 -1.03125 0.859375 -1.453125 C 0.8125 -1.59375 0.75 -1.59375 0.625 -1.59375 C 0.375 -1.59375 0.375 -1.53125 0.375 -1.3125 L 0.375 -0.21875 C 0.375 -0.03125 0.375 0.0625 0.5625 0.0625 C 0.625 0.0625 0.640625 0.0625 0.859375 -0.09375 C 0.875 -0.09375 1.09375 -0.234375 1.109375 -0.265625 C 1.578125 0.0625 2.09375 0.0625 2.296875 0.0625 C 2.609375 0.0625 4.140625 0.0625 4.140625 -1.390625 C 4.140625 -1.828125 3.9375 -2.171875 3.59375 -2.453125 C 3.203125 -2.734375 2.875 -2.796875 2.109375 -2.9375 Z M 2.109375 -2.9375 "/>
</g>
<g id="glyph-1-15">
<path d="M 3.734375 -0.765625 C 3.734375 -0.453125 3.734375 0 4.765625 0 L 5.25 0 C 5.4375 0 5.5625 0 5.5625 -0.234375 C 5.5625 -0.46875 5.4375 -0.46875 5.296875 -0.46875 C 4.6875 -0.484375 4.6875 -0.609375 4.6875 -0.84375 L 4.6875 -2.984375 C 4.6875 -3.875 3.984375 -4.515625 2.5 -4.515625 C 1.9375 -4.515625 0.71875 -4.46875 0.71875 -3.59375 C 0.71875 -3.15625 1.0625 -2.96875 1.328125 -2.96875 C 1.640625 -2.96875 1.96875 -3.1875 1.96875 -3.59375 C 1.96875 -3.890625 1.78125 -4.0625 1.75 -4.09375 C 2.03125 -4.140625 2.34375 -4.15625 2.46875 -4.15625 C 3.203125 -4.15625 3.5625 -3.734375 3.5625 -2.984375 L 3.5625 -2.640625 C 2.84375 -2.609375 0.3125 -2.515625 0.3125 -1.078125 C 0.3125 -0.125 1.5625 0.0625 2.25 0.0625 C 3.046875 0.0625 3.515625 -0.34375 3.734375 -0.765625 Z M 3.5625 -2.328125 L 3.5625 -1.390625 C 3.5625 -0.421875 2.640625 -0.296875 2.390625 -0.296875 C 1.890625 -0.296875 1.484375 -0.640625 1.484375 -1.09375 C 1.484375 -2.15625 3.0625 -2.296875 3.5625 -2.328125 Z M 3.5625 -2.328125 "/>
</g>
<g id="glyph-1-16">
<path d="M 3.59375 -4.0625 C 3.40625 -3.890625 3.390625 -3.6875 3.390625 -3.59375 C 3.390625 -3.15625 3.734375 -2.96875 4 -2.96875 C 4.3125 -2.96875 4.640625 -3.1875 4.640625 -3.59375 C 4.640625 -4.453125 3.484375 -4.515625 2.90625 -4.515625 C 1.109375 -4.515625 0.375 -3.375 0.375 -2.21875 C 0.375 -0.890625 1.3125 0.0625 2.84375 0.0625 C 4.46875 0.0625 4.765625 -1.09375 4.765625 -1.171875 C 4.765625 -1.3125 4.625 -1.3125 4.53125 -1.3125 C 4.34375 -1.3125 4.34375 -1.28125 4.28125 -1.15625 C 4.03125 -0.53125 3.546875 -0.34375 3.046875 -0.34375 C 1.65625 -0.34375 1.65625 -1.796875 1.65625 -2.265625 C 1.65625 -2.828125 1.65625 -4.109375 2.9375 -4.109375 C 3.296875 -4.109375 3.453125 -4.09375 3.59375 -4.0625 Z M 3.59375 -4.0625 "/>
</g>
<g id="glyph-1-17">
<path d="M 4.71875 -6.703125 C 4.609375 -6.953125 4.5 -6.953125 4.328125 -6.953125 C 4.046875 -6.953125 4 -6.875 3.9375 -6.703125 L 1.46875 -0.703125 C 1.40625 -0.546875 1.375 -0.46875 0.625 -0.46875 L 0.40625 -0.46875 L 0.40625 0 C 0.78125 -0.015625 1.265625 -0.03125 1.578125 -0.03125 C 1.96875 -0.03125 2.515625 -0.03125 2.890625 0 L 2.890625 -0.46875 C 2.875 -0.46875 2 -0.46875 2 -0.59375 C 2 -0.609375 2.03125 -0.703125 2.046875 -0.71875 L 2.546875 -1.921875 L 5.21875 -1.921875 L 5.8125 -0.46875 L 4.859375 -0.46875 L 4.859375 0 C 5.25 -0.03125 6.1875 -0.03125 6.625 -0.03125 C 7.015625 -0.03125 7.890625 -0.03125 8.25 0 L 8.25 -0.46875 L 7.28125 -0.46875 Z M 3.875 -5.15625 L 5.015625 -2.390625 L 2.734375 -2.390625 Z M 3.875 -5.15625 "/>
</g>
</g>
<clipPath id="clip-0">
<path clip-rule="nonzero" d="M 153 0 L 227.375 0 L 227.375 44 L 153 44 Z M 153 0 "/>
</clipPath>
<clipPath id="clip-1">
<path clip-rule="nonzero" d="M 28 26 L 29 26 L 29 196.015625 L 28 196.015625 Z M 28 26 "/>
</clipPath>
<clipPath id="clip-2">
<path clip-rule="nonzero" d="M 198 26 L 200 26 L 200 196.015625 L 198 196.015625 Z M 198 26 "/>
</clipPath>
<clipPath id="clip-3">
<path clip-rule="nonzero" d="M 184 171 L 213 171 L 213 196.015625 L 184 196.015625 Z M 184 171 "/>
</clipPath>
<clipPath id="clip-4">
<path clip-rule="nonzero" d="M 18 172 L 47 172 L 47 196.015625 L 18 196.015625 Z M 18 172 "/>
</clipPath>
</defs>
<path fill-rule="nonzero" fill="rgb(100%, 98.979187%, 80.000305%)" fill-opacity="1" stroke-width="1.19553" stroke-linecap="butt" stroke-linejoin="miter" stroke="rgb(56.176758%, 54.31366%, 28.137207%)" stroke-opacity="1" stroke-miterlimit="10" d="M 27.693531 7.693344 L -27.693188 7.693344 C -27.853344 7.693344 -27.978344 7.564437 -27.978344 7.408187 L -27.978344 -7.408219 C -27.978344 -7.564469 -27.853344 -7.693375 -27.693188 -7.693375 L 27.693531 -7.693375 C 27.849781 -7.693375 27.978687 -7.564469 27.978687 -7.408219 L 27.978687 7.408187 C 27.978687 7.564437 27.849781 7.693344 27.693531 7.693344 Z M 27.693531 7.693344 " transform="matrix(1, 0, 0, -1, 28.576, 18.666)"/>
<g fill="rgb(0%, 0%, 0%)" fill-opacity="1">
<use xlink:href="#glyph-0-0" x="3.918" y="21.101"/>
<use xlink:href="#glyph-0-1" x="11.11299" y="21.101"/>
</g>
<g fill="rgb(0%, 0%, 0%)" fill-opacity="1">
<use xlink:href="#glyph-0-2" x="21.902486" y="21.101"/>
<use xlink:href="#glyph-0-3" x="27.437706" y="21.101"/>
<use xlink:href="#glyph-0-4" x="32.695966" y="21.101"/>
<use xlink:href="#glyph-0-5" x="36.625216" y="21.101"/>
<use xlink:href="#glyph-0-6" x="40.499671" y="21.101"/>
<use xlink:href="#glyph-0-7" x="44.92705" y="21.101"/>
</g>
<path fill-rule="nonzero" fill="rgb(100%, 98.979187%, 80.000305%)" fill-opacity="1" d="M 226.496094 10.972656 L 170.816406 10.972656 C 170.660156 10.972656 170.53125 11.101562 170.53125 11.257812 L 170.53125 26.074219 C 170.53125 26.230469 170.660156 26.359375 170.816406 26.359375 L 226.496094 26.359375 C 226.652344 26.359375 226.78125 26.230469 226.78125 26.074219 L 226.78125 11.257812 C 226.78125 11.101562 226.652344 10.972656 226.496094 10.972656 Z M 226.496094 10.972656 "/>
<g clip-path="url(#clip-0)">
<path fill="none" stroke-width="1.19553" stroke-linecap="butt" stroke-linejoin="miter" stroke="rgb(56.176758%, 54.31366%, 28.137207%)" stroke-opacity="1" stroke-miterlimit="10" d="M 197.920094 7.693344 L 142.240406 7.693344 C 142.084156 7.693344 141.95525 7.564437 141.95525 7.408187 L 141.95525 -7.408219 C 141.95525 -7.564469 142.084156 -7.693375 142.240406 -7.693375 L 197.920094 -7.693375 C 198.076344 -7.693375 198.20525 -7.564469 198.20525 -7.408219 L 198.20525 7.408187 C 198.20525 7.564437 198.076344 7.693344 197.920094 7.693344 Z M 197.920094 7.693344 " transform="matrix(1, 0, 0, -1, 28.576, 18.666)"/>
</g>
<g fill="rgb(0%, 0%, 0%)" fill-opacity="1">
<use xlink:href="#glyph-0-0" x="173.852" y="21.101"/>
<use xlink:href="#glyph-0-1" x="181.04699" y="21.101"/>
<use xlink:href="#glyph-0-8" x="188.51894" y="21.101"/>
<use xlink:href="#glyph-0-9" x="195.85241" y="21.101"/>
<use xlink:href="#glyph-0-10" x="202.079035" y="21.101"/>
<use xlink:href="#glyph-0-3" x="209.896687" y="21.101"/>
<use xlink:href="#glyph-0-7" x="215.154947" y="21.101"/>
</g>
<g fill="rgb(0%, 0%, 0%)" fill-opacity="1">
<use xlink:href="#glyph-1-0" x="64.847" y="10.239"/>
<use xlink:href="#glyph-1-1" x="72.374741" y="10.239"/>
</g>
<g fill="rgb(0%, 0%, 0%)" fill-opacity="1">
<use xlink:href="#glyph-1-2" x="78.421042" y="10.239"/>
<use xlink:href="#glyph-1-3" x="84.467344" y="10.239"/>
<use xlink:href="#glyph-1-4" x="87.649399" y="10.239"/>
<use xlink:href="#glyph-1-5" x="92.367686" y="10.239"/>
<use xlink:href="#glyph-1-1" x="98.096181" y="10.239"/>
<use xlink:href="#glyph-1-6" x="104.461286" y="10.239"/>
<use xlink:href="#glyph-1-7" x="114.008446" y="10.239"/>
<use xlink:href="#glyph-1-1" x="119.259732" y="10.239"/>
</g>
<g fill="rgb(0%, 0%, 0%)" fill-opacity="1">
<use xlink:href="#glyph-1-8" x="125.306034" y="10.239"/>
</g>
<g fill="rgb(0%, 0%, 0%)" fill-opacity="1">
<use xlink:href="#glyph-1-9" x="133.576985" y="10.239"/>
<use xlink:href="#glyph-1-7" x="139.94209" y="10.239"/>
<use xlink:href="#glyph-1-8" x="145.193376" y="10.239"/>
<use xlink:href="#glyph-1-10" x="149.648651" y="10.239"/>
<use xlink:href="#glyph-1-11" x="156.013756" y="10.239"/>
</g>
<path fill="none" stroke-width="0.398" stroke-linecap="butt" stroke-linejoin="miter" stroke="rgb(0%, 0%, 0%)" stroke-opacity="1" stroke-miterlimit="10" d="M 0.00065625 0.0006875 L 97.535812 0.0006875 " transform="matrix(1, 0, 0, -1, 64.847, 13.571)"/>
<g clip-path="url(#clip-1)">
<path fill="none" stroke-width="0.79701" stroke-linecap="butt" stroke-linejoin="miter" stroke="rgb(0%, 0%, 0%)" stroke-opacity="1" stroke-dasharray="2.98883 2.98883" stroke-miterlimit="10" d="M -0.00178125 -8.291031 L -0.00178125 -176.955094 " transform="matrix(1, 0, 0, -1, 28.576, 18.666)"/>
</g>
<g clip-path="url(#clip-2)">
<path fill="none" stroke-width="0.79701" stroke-linecap="butt" stroke-linejoin="miter" stroke="rgb(0%, 0%, 0%)" stroke-opacity="1" stroke-dasharray="2.98883 2.98883" stroke-miterlimit="10" d="M 170.08025 -8.291031 L 170.08025 -176.955094 " transform="matrix(1, 0, 0, -1, 28.576, 18.666)"/>
</g>
<path fill="none" stroke-width="0.3985" stroke-linecap="butt" stroke-linejoin="miter" stroke="rgb(0%, 0%, 0%)" stroke-opacity="1" stroke-dasharray="0.3985 1.99255" stroke-miterlimit="10" d="M 170.08025 -28.134781 L -0.00178125 -28.134781 " transform="matrix(1, 0, 0, -1, 28.576, 18.666)"/>
<g fill="rgb(0%, 0%, 0%)" fill-opacity="1">
<use xlink:href="#glyph-1-12" x="67.299" y="40.944"/>
<use xlink:href="#glyph-1-13" x="75.90569" y="40.944"/>
<use xlink:href="#glyph-1-14" x="82.270795" y="40.944"/>
<use xlink:href="#glyph-1-7" x="86.789831" y="40.944"/>
<use xlink:href="#glyph-1-4" x="92.041117" y="40.944"/>
<use xlink:href="#glyph-1-2" x="96.759404" y="40.944"/>
</g>
<g fill="rgb(0%, 0%, 0%)" fill-opacity="1">
<use xlink:href="#glyph-1-15" x="102.1681" y="40.944"/>
<use xlink:href="#glyph-1-8" x="107.737193" y="40.944"/>
<use xlink:href="#glyph-1-3" x="112.192468" y="40.944"/>
<use xlink:href="#glyph-1-5" x="115.374523" y="40.944"/>
<use xlink:href="#glyph-1-1" x="121.103018" y="40.944"/>
</g>
<g fill="rgb(0%, 0%, 0%)" fill-opacity="1">
<use xlink:href="#glyph-1-9" x="131.293761" y="40.944"/>
<use xlink:href="#glyph-1-11" x="137.658866" y="40.944"/>
<use xlink:href="#glyph-1-15" x="144.023971" y="40.944"/>
<use xlink:href="#glyph-1-16" x="149.593065" y="40.944"/>
<use xlink:href="#glyph-1-7" x="154.68495" y="40.944"/>
</g>
<path fill="none" stroke-width="0.79701" stroke-linecap="butt" stroke-linejoin="miter" stroke="rgb(0%, 50%, 0%)" stroke-opacity="1" stroke-miterlimit="10" d="M 167.490406 -47.974625 L 6.177906 -47.974625 " transform="matrix(1, 0, 0, -1, 28.576, 18.666)"/>
<path fill-rule="nonzero" fill="rgb(0%, 50%, 0%)" fill-opacity="1" stroke-width="0.79701" stroke-linecap="butt" stroke-linejoin="miter" stroke="rgb(0%, 50%, 0%)" stroke-opacity="1" stroke-miterlimit="10" d="M 5.578064 0.001605 C 5.578064 1.431292 4.417907 2.591449 2.98822 2.591449 C 1.558532 2.591449 0.398376 1.431292 0.398376 0.001605 C 0.398376 -1.431989 1.558532 -2.592145 2.98822 -2.592145 C 4.417907 -2.592145 5.578064 -1.431989 5.578064 0.001605 Z M 5.578064 0.001605 " transform="matrix(1, 0, 0, -1, 195.66803, 66.64223)"/>
<path fill-rule="nonzero" fill="rgb(0%, 50%, 0%)" fill-opacity="1" stroke-width="0.79701" stroke-linecap="butt" stroke-linejoin="miter" stroke="rgb(0%, 50%, 0%)" stroke-opacity="1" stroke-miterlimit="10" d="M 4.53418 -0.001605 C 3.975586 0.13902 1.530274 0.92027 -0.00097625 1.771833 L -0.00097625 -1.771136 C 1.530274 -0.919574 3.975586 -0.138324 4.53418 -0.001605 Z M 4.53418 -0.001605 " transform="matrix(-1, 0, 0, 1, 34.75293, 66.64223)"/>
<g fill="rgb(0%, 50%, 0%)" fill-opacity="1">
<use xlink:href="#glyph-0-11" x="53.906" y="60.233"/>
<use xlink:href="#glyph-0-12" x="58.8873" y="60.233"/>
<use xlink:href="#glyph-0-6" x="63.8686" y="60.233"/>
<use xlink:href="#glyph-0-5" x="68.295979" y="60.233"/>
</g>
<path fill="none" stroke-width="0.398" stroke-linecap="butt" stroke-linejoin="miter" stroke="rgb(0%, 50%, 0%)" stroke-opacity="1" stroke-miterlimit="10" d="M 0.00153125 0.00175 L 2.989812 0.00175 " transform="matrix(1, 0, 0, -1, 72.768, 60.033)"/>
<g fill="rgb(0%, 50%, 0%)" fill-opacity="1">
<use xlink:href="#glyph-0-13" x="75.757" y="60.233"/>
<use xlink:href="#glyph-0-14" x="81.292221" y="60.233"/>
<use xlink:href="#glyph-0-6" x="85.194571" y="60.233"/>
<use xlink:href="#glyph-0-15" x="89.62195" y="60.233"/>
<use xlink:href="#glyph-0-6" x="95.157171" y="60.233"/>
<use xlink:href="#glyph-0-16" x="99.58455" y="60.233"/>
<use xlink:href="#glyph-0-17" x="105.119771" y="60.233"/>
<use xlink:href="#glyph-0-6" x="110.654992" y="60.233"/>
<use xlink:href="#glyph-0-15" x="115.082371" y="60.233"/>
</g>
<path fill="none" stroke-width="0.398" stroke-linecap="butt" stroke-linejoin="miter" stroke="rgb(0%, 50%, 0%)" stroke-opacity="1" stroke-miterlimit="10" d="M -0.00015625 0.00175 L 2.988125 0.00175 " transform="matrix(1, 0, 0, -1, 121.215, 60.033)"/>
<g fill="rgb(0%, 50%, 0%)" fill-opacity="1">
<use xlink:href="#glyph-0-18" x="124.203" y="60.233"/>
<use xlink:href="#glyph-0-19" x="129.1843" y="60.233"/>
<use xlink:href="#glyph-0-4" x="134.719521" y="60.233"/>
<use xlink:href="#glyph-0-6" x="138.64877" y="60.233"/>
<use xlink:href="#glyph-0-14" x="143.076149" y="60.233"/>
<use xlink:href="#glyph-0-20" x="146.9785" y="60.233"/>
</g>
<g fill="rgb(0%, 50%, 0%)" fill-opacity="1">
<use xlink:href="#glyph-0-21" x="151.678855" y="60.233"/>
<use xlink:href="#glyph-0-19" x="156.660155" y="60.233"/>
<use xlink:href="#glyph-0-22" x="162.195375" y="60.233"/>
<use xlink:href="#glyph-0-6" x="164.962985" y="60.233"/>
<use xlink:href="#glyph-0-4" x="169.390365" y="60.233"/>
</g>
<path fill="none" stroke-width="0.79701" stroke-linecap="butt" stroke-linejoin="miter" stroke="rgb(0%, 50%, 0%)" stroke-opacity="1" stroke-miterlimit="10" d="M 167.490406 -67.818375 L 6.177906 -67.818375 " transform="matrix(1, 0, 0, -1, 28.576, 18.666)"/>
<path fill-rule="nonzero" fill="rgb(0%, 50%, 0%)" fill-opacity="1" stroke-width="0.79701" stroke-linecap="butt" stroke-linejoin="miter" stroke="rgb(0%, 50%, 0%)" stroke-opacity="1" stroke-miterlimit="10" d="M 5.578064 0.000535 C 5.578064 1.430222 4.417907 2.590379 2.98822 2.590379 C 1.558532 2.590379 0.398376 1.430222 0.398376 0.000535 C 0.398376 -1.429153 1.558532 -2.589309 2.98822 -2.589309 C 4.417907 -2.589309 5.578064 -1.429153 5.578064 0.000535 Z M 5.578064 0.000535 " transform="matrix(1, 0, 0, -1, 195.66803, 86.48491)"/>
<path fill-rule="nonzero" fill="rgb(0%, 50%, 0%)" fill-opacity="1" stroke-width="0.79701" stroke-linecap="butt" stroke-linejoin="miter" stroke="rgb(0%, 50%, 0%)" stroke-opacity="1" stroke-miterlimit="10" d="M 4.53418 -0.000535 C 3.975586 0.136184 1.530274 0.92134 -0.00097625 1.772903 L -0.00097625 -1.770066 C 1.530274 -0.92241 3.975586 -0.137254 4.53418 -0.000535 Z M 4.53418 -0.000535 " transform="matrix(-1, 0, 0, 1, 34.75293, 86.48491)"/>
<g fill="rgb(0%, 50%, 0%)" fill-opacity="1">
<use xlink:href="#glyph-0-11" x="56.396" y="80.075"/>
<use xlink:href="#glyph-0-12" x="61.3773" y="80.075"/>
<use xlink:href="#glyph-0-6" x="66.3586" y="80.075"/>
<use xlink:href="#glyph-0-5" x="70.785979" y="80.075"/>
</g>
<path fill="none" stroke-width="0.398" stroke-linecap="butt" stroke-linejoin="miter" stroke="rgb(0%, 50%, 0%)" stroke-opacity="1" stroke-miterlimit="10" d="M -0.0011875 0.001 L 2.987094 0.001 " transform="matrix(1, 0, 0, -1, 75.259, 79.876)"/>
<g fill="rgb(0%, 50%, 0%)" fill-opacity="1">
<use xlink:href="#glyph-0-18" x="78.248" y="80.075"/>
<use xlink:href="#glyph-0-19" x="83.2293" y="80.075"/>
<use xlink:href="#glyph-0-4" x="88.764521" y="80.075"/>
<use xlink:href="#glyph-0-6" x="92.69377" y="80.075"/>
<use xlink:href="#glyph-0-14" x="97.121149" y="80.075"/>
<use xlink:href="#glyph-0-20" x="101.0235" y="80.075"/>
</g>
<g fill="rgb(0%, 50%, 0%)" fill-opacity="1">
<use xlink:href="#glyph-0-21" x="105.723855" y="80.075"/>
<use xlink:href="#glyph-0-19" x="110.705155" y="80.075"/>
<use xlink:href="#glyph-0-22" x="116.240375" y="80.075"/>
<use xlink:href="#glyph-0-6" x="119.007985" y="80.075"/>
</g>
<path fill="none" stroke-width="0.398" stroke-linecap="butt" stroke-linejoin="miter" stroke="rgb(0%, 50%, 0%)" stroke-opacity="1" stroke-miterlimit="10" d="M -0.00184375 0.001 L 2.990344 0.001 " transform="matrix(1, 0, 0, -1, 124.037, 79.876)"/>
<g fill="rgb(0%, 50%, 0%)" fill-opacity="1">
<use xlink:href="#glyph-0-13" x="127.026" y="80.075"/>
<use xlink:href="#glyph-0-14" x="132.561221" y="80.075"/>
<use xlink:href="#glyph-0-6" x="136.463571" y="80.075"/>
<use xlink:href="#glyph-0-15" x="140.89095" y="80.075"/>
<use xlink:href="#glyph-0-23" x="146.426171" y="80.075"/>
<use xlink:href="#glyph-0-24" x="149.193781" y="80.075"/>
<use xlink:href="#glyph-0-21" x="153.621161" y="80.075"/>
<use xlink:href="#glyph-0-5" x="158.602461" y="80.075"/>
<use xlink:href="#glyph-0-6" x="162.476916" y="80.075"/>
<use xlink:href="#glyph-0-4" x="166.904295" y="80.075"/>
</g>
<path fill="none" stroke-width="0.79701" stroke-linecap="butt" stroke-linejoin="miter" stroke="rgb(0%, 50%, 0%)" stroke-opacity="1" stroke-miterlimit="10" d="M 167.490406 -87.662125 L 6.177906 -87.662125 " transform="matrix(1, 0, 0, -1, 28.576, 18.666)"/>
<path fill-rule="nonzero" fill="rgb(0%, 50%, 0%)" fill-opacity="1" stroke-width="0.79701" stroke-linecap="butt" stroke-linejoin="miter" stroke="rgb(0%, 50%, 0%)" stroke-opacity="1" stroke-miterlimit="10" d="M 5.578064 -0.000535 C 5.578064 1.429152 4.417907 2.589309 2.98822 2.589309 C 1.558532 2.589309 0.398376 1.429152 0.398376 -0.000535 C 0.398376 -1.430223 1.558532 -2.590379 2.98822 -2.590379 C 4.417907 -2.590379 5.578064 -1.430223 5.578064 -0.000535 Z M 5.578064 -0.000535 " transform="matrix(1, 0, 0, -1, 195.66803, 106.32759)"/>
<path fill-rule="nonzero" fill="rgb(0%, 50%, 0%)" fill-opacity="1" stroke-width="0.79701" stroke-linecap="butt" stroke-linejoin="miter" stroke="rgb(0%, 50%, 0%)" stroke-opacity="1" stroke-miterlimit="10" d="M 4.53418 0.000535 C 3.975586 0.137254 1.530274 0.92241 -0.00097625 1.770066 L -0.00097625 -1.772902 C 1.530274 -0.92134 3.975586 -0.136184 4.53418 0.000535 Z M 4.53418 0.000535 " transform="matrix(-1, 0, 0, 1, 34.75293, 106.32759)"/>
<g fill="rgb(0%, 50%, 0%)" fill-opacity="1">
<use xlink:href="#glyph-0-11" x="62.914" y="99.918"/>
<use xlink:href="#glyph-0-12" x="67.8953" y="99.918"/>
<use xlink:href="#glyph-0-6" x="72.8766" y="99.918"/>
<use xlink:href="#glyph-0-5" x="77.303979" y="99.918"/>
</g>
<path fill="none" stroke-width="0.398" stroke-linecap="butt" stroke-linejoin="miter" stroke="rgb(0%, 50%, 0%)" stroke-opacity="1" stroke-miterlimit="10" d="M 0.00134375 -0.00075 L 2.989625 -0.00075 " transform="matrix(1, 0, 0, -1, 81.776, 99.718)"/>
<g fill="rgb(0%, 50%, 0%)" fill-opacity="1">
<use xlink:href="#glyph-0-18" x="84.765" y="99.918"/>
<use xlink:href="#glyph-0-19" x="89.7463" y="99.918"/>
<use xlink:href="#glyph-0-4" x="95.281521" y="99.918"/>
<use xlink:href="#glyph-0-6" x="99.21077" y="99.918"/>
<use xlink:href="#glyph-0-14" x="103.638149" y="99.918"/>
<use xlink:href="#glyph-0-20" x="107.5405" y="99.918"/>
</g>
<g fill="rgb(0%, 50%, 0%)" fill-opacity="1">
<use xlink:href="#glyph-0-21" x="112.240855" y="99.918"/>
<use xlink:href="#glyph-0-19" x="117.222155" y="99.918"/>
<use xlink:href="#glyph-0-22" x="122.757375" y="99.918"/>
<use xlink:href="#glyph-0-6" x="125.524985" y="99.918"/>
</g>
<path fill="none" stroke-width="0.398" stroke-linecap="butt" stroke-linejoin="miter" stroke="rgb(0%, 50%, 0%)" stroke-opacity="1" stroke-miterlimit="10" d="M -0.0003125 -0.00075 L 2.987969 -0.00075 " transform="matrix(1, 0, 0, -1, 130.555, 99.718)"/>
<g fill="rgb(0%, 50%, 0%)" fill-opacity="1">
<use xlink:href="#glyph-0-18" x="133.543" y="99.918"/>
<use xlink:href="#glyph-0-19" x="138.5243" y="99.918"/>
</g>
<g fill="rgb(0%, 50%, 0%)" fill-opacity="1">
<use xlink:href="#glyph-0-25" x="144.617426" y="99.918"/>
<use xlink:href="#glyph-0-6" x="147.661997" y="99.918"/>
<use xlink:href="#glyph-0-24" x="152.089376" y="99.918"/>
<use xlink:href="#glyph-0-5" x="156.516756" y="99.918"/>
<use xlink:href="#glyph-0-4" x="160.391211" y="99.918"/>
</g>
<path fill="none" stroke-width="0.3985" stroke-linecap="butt" stroke-linejoin="miter" stroke="rgb(0%, 0%, 0%)" stroke-opacity="1" stroke-dasharray="0.3985 1.99255" stroke-miterlimit="10" d="M 170.08025 -107.505875 L -0.00178125 -107.505875 " transform="matrix(1, 0, 0, -1, 28.576, 18.666)"/>
<g fill="rgb(0%, 0%, 0%)" fill-opacity="1">
<use xlink:href="#glyph-1-17" x="80.642" y="120.314"/>
<use xlink:href="#glyph-1-16" x="89.303484" y="120.314"/>
<use xlink:href="#glyph-1-8" x="94.395369" y="120.314"/>
<use xlink:href="#glyph-1-3" x="98.850644" y="120.314"/>
<use xlink:href="#glyph-1-5" x="102.032698" y="120.314"/>
<use xlink:href="#glyph-1-1" x="107.761193" y="120.314"/>
</g>
<g fill="rgb(0%, 0%, 0%)" fill-opacity="1">
<use xlink:href="#glyph-1-9" x="117.941974" y="120.314"/>
<use xlink:href="#glyph-1-11" x="124.30708" y="120.314"/>
<use xlink:href="#glyph-1-15" x="130.672185" y="120.314"/>
<use xlink:href="#glyph-1-16" x="136.241278" y="120.314"/>
<use xlink:href="#glyph-1-7" x="141.333163" y="120.314"/>
</g>
<path fill="none" stroke-width="0.79701" stroke-linecap="butt" stroke-linejoin="miter" stroke="rgb(0%, 50%, 0%)" stroke-opacity="1" stroke-miterlimit="10" d="M 167.490406 -127.345719 L 6.177906 -127.345719 " transform="matrix(1, 0, 0, -1, 28.576, 18.666)"/>
<path fill-rule="nonzero" fill="rgb(0%, 50%, 0%)" fill-opacity="1" stroke-width="0.79701" stroke-linecap="butt" stroke-linejoin="miter" stroke="rgb(0%, 50%, 0%)" stroke-opacity="1" stroke-miterlimit="10" d="M 5.578064 0.00125125 C 5.578064 1.430939 4.417907 2.591095 2.98822 2.591095 C 1.558532 2.591095 0.398376 1.430939 0.398376 0.00125125 C 0.398376 -1.432343 1.558532 -2.588593 2.98822 -2.588593 C 4.417907 -2.588593 5.578064 -1.432343 5.578064 0.00125125 Z M 5.578064 0.00125125 " transform="matrix(1, 0, 0, -1, 195.66803, 146.01297)"/>
<path fill-rule="nonzero" fill="rgb(0%, 50%, 0%)" fill-opacity="1" stroke-width="0.79701" stroke-linecap="butt" stroke-linejoin="miter" stroke="rgb(0%, 50%, 0%)" stroke-opacity="1" stroke-miterlimit="10" d="M 4.53418 -0.00125125 C 3.975586 0.139374 1.530274 0.920624 -0.00097625 1.772186 L -0.00097625 -1.770782 C 1.530274 -0.91922 3.975586 -0.13797 4.53418 -0.00125125 Z M 4.53418 -0.00125125 " transform="matrix(-1, 0, 0, 1, 34.75293, 146.01297)"/>
<g fill="rgb(0%, 50%, 0%)" fill-opacity="1">
<use xlink:href="#glyph-0-11" x="63.218" y="139.602"/>
<use xlink:href="#glyph-0-12" x="68.1993" y="139.602"/>
<use xlink:href="#glyph-0-6" x="73.1806" y="139.602"/>
<use xlink:href="#glyph-0-5" x="77.607979" y="139.602"/>
</g>
<path fill="none" stroke-width="0.398" stroke-linecap="butt" stroke-linejoin="miter" stroke="rgb(0%, 50%, 0%)" stroke-opacity="1" stroke-miterlimit="10" d="M 0.00103125 0.00065625 L 2.989312 0.00065625 " transform="matrix(1, 0, 0, -1, 82.081, 139.403)"/>
<g fill="rgb(0%, 50%, 0%)" fill-opacity="1">
<use xlink:href="#glyph-0-13" x="85.069" y="139.602"/>
<use xlink:href="#glyph-0-14" x="90.604221" y="139.602"/>
<use xlink:href="#glyph-0-6" x="94.506571" y="139.602"/>
<use xlink:href="#glyph-0-15" x="98.93395" y="139.602"/>
<use xlink:href="#glyph-0-6" x="104.469171" y="139.602"/>
<use xlink:href="#glyph-0-16" x="108.89655" y="139.602"/>
<use xlink:href="#glyph-0-17" x="114.431771" y="139.602"/>
<use xlink:href="#glyph-0-6" x="119.966992" y="139.602"/>
<use xlink:href="#glyph-0-15" x="124.394371" y="139.602"/>
</g>
<path fill="none" stroke-width="0.398" stroke-linecap="butt" stroke-linejoin="miter" stroke="rgb(0%, 50%, 0%)" stroke-opacity="1" stroke-miterlimit="10" d="M 0.00034375 0.00065625 L 2.988625 0.00065625 " transform="matrix(1, 0, 0, -1, 130.527, 139.403)"/>
<g fill="rgb(0%, 50%, 0%)" fill-opacity="1">
<use xlink:href="#glyph-0-21" x="133.516" y="139.602"/>
<use xlink:href="#glyph-0-24" x="138.4973" y="139.602"/>
<use xlink:href="#glyph-0-5" x="142.924679" y="139.602"/>
<use xlink:href="#glyph-0-23" x="146.799135" y="139.602"/>
<use xlink:href="#glyph-0-18" x="149.566745" y="139.602"/>
<use xlink:href="#glyph-0-17" x="154.548045" y="139.602"/>
<use xlink:href="#glyph-0-4" x="160.083265" y="139.602"/>
</g>
<path fill="none" stroke-width="0.79701" stroke-linecap="butt" stroke-linejoin="miter" stroke="rgb(0%, 50%, 0%)" stroke-opacity="1" stroke-miterlimit="10" d="M 167.490406 -147.189469 L 6.177906 -147.189469 " transform="matrix(1, 0, 0, -1, 28.576, 18.666)"/>
<path fill-rule="nonzero" fill="rgb(0%, 50%, 0%)" fill-opacity="1" stroke-width="0.79701" stroke-linecap="butt" stroke-linejoin="miter" stroke="rgb(0%, 50%, 0%)" stroke-opacity="1" stroke-miterlimit="10" d="M 5.578064 0.00018125 C 5.578064 1.429869 4.417907 2.590025 2.98822 2.590025 C 1.558532 2.590025 0.398376 1.429869 0.398376 0.00018125 C 0.398376 -1.429506 1.558532 -2.589663 2.98822 -2.589663 C 4.417907 -2.589663 5.578064 -1.429506 5.578064 0.00018125 Z M 5.578064 0.00018125 " transform="matrix(1, 0, 0, -1, 195.66803, 165.85565)"/>
<path fill-rule="nonzero" fill="rgb(0%, 50%, 0%)" fill-opacity="1" stroke-width="0.79701" stroke-linecap="butt" stroke-linejoin="miter" stroke="rgb(0%, 50%, 0%)" stroke-opacity="1" stroke-miterlimit="10" d="M 4.53418 -0.00018125 C 3.975586 0.136538 1.530274 0.921694 -0.00097625 1.773256 L -0.00097625 -1.773619 C 1.530274 -0.922056 3.975586 -0.1369 4.53418 -0.00018125 Z M 4.53418 -0.00018125 " transform="matrix(-1, 0, 0, 1, 34.75293, 165.85565)"/>
<g fill="rgb(0%, 50%, 0%)" fill-opacity="1">
<use xlink:href="#glyph-0-11" x="63.052" y="159.445"/>
<use xlink:href="#glyph-0-12" x="68.0333" y="159.445"/>
<use xlink:href="#glyph-0-6" x="73.0146" y="159.445"/>
<use xlink:href="#glyph-0-5" x="77.441979" y="159.445"/>
</g>
<path fill="none" stroke-width="0.398" stroke-linecap="butt" stroke-linejoin="miter" stroke="rgb(0%, 50%, 0%)" stroke-opacity="1" stroke-miterlimit="10" d="M -0.0009375 -0.00009375 L 2.987344 -0.00009375 " transform="matrix(1, 0, 0, -1, 81.915, 159.246)"/>
<g fill="rgb(0%, 50%, 0%)" fill-opacity="1">
<use xlink:href="#glyph-0-18" x="84.903" y="159.445"/>
<use xlink:href="#glyph-0-19" x="89.8843" y="159.445"/>
<use xlink:href="#glyph-0-4" x="95.419521" y="159.445"/>
<use xlink:href="#glyph-0-6" x="99.34877" y="159.445"/>
<use xlink:href="#glyph-0-14" x="103.776149" y="159.445"/>
<use xlink:href="#glyph-0-20" x="107.6785" y="159.445"/>
</g>
<g fill="rgb(0%, 50%, 0%)" fill-opacity="1">
<use xlink:href="#glyph-0-21" x="112.378855" y="159.445"/>
<use xlink:href="#glyph-0-19" x="117.360155" y="159.445"/>
<use xlink:href="#glyph-0-22" x="122.895375" y="159.445"/>
<use xlink:href="#glyph-0-6" x="125.662985" y="159.445"/>
</g>
<path fill="none" stroke-width="0.398" stroke-linecap="butt" stroke-linejoin="miter" stroke="rgb(0%, 50%, 0%)" stroke-opacity="1" stroke-miterlimit="10" d="M -0.00159375 -0.00009375 L 2.990594 -0.00009375 " transform="matrix(1, 0, 0, -1, 130.693, 159.246)"/>
<g fill="rgb(0%, 50%, 0%)" fill-opacity="1">
<use xlink:href="#glyph-0-21" x="133.682" y="159.445"/>
<use xlink:href="#glyph-0-24" x="138.6633" y="159.445"/>
<use xlink:href="#glyph-0-5" x="143.090679" y="159.445"/>
<use xlink:href="#glyph-0-23" x="146.965135" y="159.445"/>
<use xlink:href="#glyph-0-18" x="149.732745" y="159.445"/>
<use xlink:href="#glyph-0-17" x="154.714045" y="159.445"/>
<use xlink:href="#glyph-0-4" x="160.249265" y="159.445"/>
</g>
<path fill="none" stroke-width="0.79701" stroke-linecap="butt" stroke-linejoin="miter" stroke="rgb(0%, 50%, 0%)" stroke-opacity="1" stroke-miterlimit="10" d="M 167.490406 -167.033219 L 6.177906 -167.033219 " transform="matrix(1, 0, 0, -1, 28.576, 18.666)"/>
<path fill-rule="nonzero" fill="rgb(0%, 50%, 0%)" fill-opacity="1" d="M 201.246094 185.699219 C 201.246094 184.269531 200.085938 183.109375 198.65625 183.109375 C 197.226562 183.109375 196.066406 184.269531 196.066406 185.699219 C 196.066406 187.128906 197.226562 188.289062 198.65625 188.289062 C 200.085938 188.289062 201.246094 187.128906 201.246094 185.699219 Z M 201.246094 185.699219 "/>
<g clip-path="url(#clip-3)">
<path fill="none" stroke-width="0.79701" stroke-linecap="butt" stroke-linejoin="miter" stroke="rgb(0%, 50%, 0%)" stroke-opacity="1" stroke-miterlimit="10" d="M 5.578064 -0.00088875 C 5.578064 1.428799 4.417907 2.588955 2.98822 2.588955 C 1.558532 2.588955 0.398376 1.428799 0.398376 -0.00088875 C 0.398376 -1.430576 1.558532 -2.590733 2.98822 -2.590733 C 4.417907 -2.590733 5.578064 -1.430576 5.578064 -0.00088875 Z M 5.578064 -0.00088875 " transform="matrix(1, 0, 0, -1, 195.66803, 185.69833)"/>
</g>
<path fill-rule="nonzero" fill="rgb(0%, 50%, 0%)" fill-opacity="1" d="M 30.21875 185.699219 C 30.777344 185.835938 33.222656 186.617188 34.753906 187.46875 L 34.753906 183.925781 C 33.222656 184.777344 30.777344 185.558594 30.21875 185.699219 Z M 30.21875 185.699219 "/>
<g clip-path="url(#clip-4)">
<path fill="none" stroke-width="0.79701" stroke-linecap="butt" stroke-linejoin="miter" stroke="rgb(0%, 50%, 0%)" stroke-opacity="1" stroke-miterlimit="10" d="M 4.53418 0.00088875 C 3.975586 0.137608 1.530274 0.918858 -0.00097625 1.77042 L -0.00097625 -1.772549 C 1.530274 -0.920986 3.975586 -0.139736 4.53418 0.00088875 Z M 4.53418 0.00088875 " transform="matrix(-1, 0, 0, 1, 34.75293, 185.69833)"/>
</g>
<g fill="rgb(0%, 50%, 0%)" fill-opacity="1">
<use xlink:href="#glyph-0-11" x="62.914" y="179.287"/>
<use xlink:href="#glyph-0-12" x="67.8953" y="179.287"/>
<use xlink:href="#glyph-0-6" x="72.8766" y="179.287"/>
<use xlink:href="#glyph-0-5" x="77.303979" y="179.287"/>
</g>
<path fill="none" stroke-width="0.398" stroke-linecap="butt" stroke-linejoin="miter" stroke="rgb(0%, 50%, 0%)" stroke-opacity="1" stroke-miterlimit="10" d="M 0.00134375 -0.00184375 L 2.989625 -0.00184375 " transform="matrix(1, 0, 0, -1, 81.776, 179.088)"/>
<g fill="rgb(0%, 50%, 0%)" fill-opacity="1">
<use xlink:href="#glyph-0-18" x="84.765" y="179.287"/>
<use xlink:href="#glyph-0-19" x="89.7463" y="179.287"/>
<use xlink:href="#glyph-0-4" x="95.281521" y="179.287"/>
<use xlink:href="#glyph-0-6" x="99.21077" y="179.287"/>
<use xlink:href="#glyph-0-14" x="103.638149" y="179.287"/>
<use xlink:href="#glyph-0-20" x="107.5405" y="179.287"/>
</g>
<g fill="rgb(0%, 50%, 0%)" fill-opacity="1">
<use xlink:href="#glyph-0-21" x="112.240855" y="179.287"/>
<use xlink:href="#glyph-0-19" x="117.222155" y="179.287"/>
<use xlink:href="#glyph-0-22" x="122.757375" y="179.287"/>
<use xlink:href="#glyph-0-6" x="125.524985" y="179.287"/>
</g>
<path fill="none" stroke-width="0.398" stroke-linecap="butt" stroke-linejoin="miter" stroke="rgb(0%, 50%, 0%)" stroke-opacity="1" stroke-miterlimit="10" d="M -0.0003125 -0.00184375 L 2.987969 -0.00184375 " transform="matrix(1, 0, 0, -1, 130.555, 179.088)"/>
<g fill="rgb(0%, 50%, 0%)" fill-opacity="1">
<use xlink:href="#glyph-0-18" x="133.543" y="179.287"/>
<use xlink:href="#glyph-0-19" x="138.5243" y="179.287"/>
</g>
<g fill="rgb(0%, 50%, 0%)" fill-opacity="1">
<use xlink:href="#glyph-0-25" x="144.617426" y="179.287"/>
<use xlink:href="#glyph-0-6" x="147.661997" y="179.287"/>
<use xlink:href="#glyph-0-24" x="152.089376" y="179.287"/>
<use xlink:href="#glyph-0-5" x="156.516756" y="179.287"/>
<use xlink:href="#glyph-0-4" x="160.391211" y="179.287"/>
</g>
</svg>
